EBGaramondVF-Caption_Regular.ufo
<glyph name="numbersign" format="1">
  <advance width="492"/>
  <unicode hex="0023"/>
  <outline>
    <contour>
      <point x="61" y="-79" type="curve" smooth="yes"/>
      <point x="74" y="-79"/>
      <point x="103" y="-77"/>
      <point x="106" y="-64" type="curve" smooth="yes"/>
      <point x="148" y="107" type="line"/>
      <point x="253" y="113" type="line"/>
      <point x="212" y="-53" type="line"/>
      <point x="212" y="-56" type="line" smooth="yes"/>
      <point x="212" y="-62"/>
      <point x="216" y="-68"/>
      <point x="222" y="-68" type="curve" smooth="yes"/>
      <point x="235" y="-68"/>
      <point x="263" y="-66"/>
      <point x="266" y="-53" type="curve" smooth="yes"/>
      <point x="308" y="115" type="line"/>
      <point x="365" y="118" type="line" smooth="yes"/>
      <point x="388" y="119"/>
      <point x="398" y="163"/>
      <point x="398" y="174" type="curve" smooth="yes"/>
      <point x="398" y="183"/>
      <point x="391" y="189"/>
      <point x="384" y="189" type="curve"/>
      <point x="325" y="186" type="line"/>
      <point x="358" y="318" type="line"/>
      <point x="412" y="321" type="line" smooth="yes"/>
      <point x="436" y="322"/>
      <point x="446" y="368"/>
      <point x="446" y="380" type="curve" smooth="yes"/>
      <point x="446" y="387"/>
      <point x="440" y="391"/>
      <point x="433" y="391" type="curve"/>
      <point x="375" y="388" type="line"/>
      <point x="415" y="553" type="line"/>
      <point x="415" y="555"/>
      <point x="416" y="556"/>
      <point x="416" y="558" type="curve" smooth="yes"/>
      <point x="416" y="564"/>
      <point x="413" y="570"/>
      <point x="408" y="570" type="curve" smooth="yes"/>
      <point x="394" y="570"/>
      <point x="364" y="567"/>
      <point x="361" y="553" type="curve" smooth="yes"/>
      <point x="320" y="386" type="line"/>
      <point x="216" y="380" type="line"/>
      <point x="255" y="542" type="line"/>
      <point x="255" y="544"/>
      <point x="256" y="546"/>
      <point x="256" y="548" type="curve" smooth="yes"/>
      <point x="255" y="554"/>
      <point x="253" y="559"/>
      <point x="246" y="559" type="curve" smooth="yes"/>
      <point x="232" y="559"/>
      <point x="203" y="556"/>
      <point x="200" y="539" type="curve" smooth="yes"/>
      <point x="160" y="378" type="line"/>
      <point x="93" y="375" type="line" smooth="yes"/>
      <point x="69" y="374"/>
      <point x="66" y="331"/>
      <point x="66" y="319" type="curve" smooth="yes"/>
      <point x="66" y="311"/>
      <point x="74" y="305"/>
      <point x="81" y="305" type="curve"/>
      <point x="143" y="308" type="line"/>
      <point x="110" y="176" type="line"/>
      <point x="44" y="173" type="line" smooth="yes"/>
      <point x="21" y="172"/>
      <point x="18" y="127"/>
      <point x="18" y="114" type="curve" smooth="yes"/>
      <point x="18" y="107"/>
      <point x="25" y="102"/>
      <point x="32" y="102" type="curve"/>
      <point x="94" y="105" type="line"/>
      <point x="51" y="-64" type="line"/>
      <point x="51" y="-67" type="line" smooth="yes"/>
      <point x="51" y="-73"/>
      <point x="55" y="-79"/>
    </contour>
    <contour>
      <point x="165" y="178" type="line"/>
      <point x="198" y="310" type="line"/>
      <point x="303" y="316" type="line"/>
      <point x="271" y="183" type="line"/>
    </contour>
  </outline>
</glyph>
<glyph name="dollar" format="1">
  <advance width="481"/>
  <unicode hex="0024"/>
  <outline>
    <contour>
      <point x="185" y="-82" type="curve" smooth="yes"/>
      <point x="203" y="-82"/>
      <point x="222" y="-79"/>
      <point x="224" y="-66" type="curve" smooth="yes"/>
      <point x="235" y="16" type="line" smooth="yes"/>
      <point x="236" y="22"/>
      <point x="239" y="24"/>
      <point x="245" y="24" type="curve" smooth="yes"/>
      <point x="359" y="26"/>
      <point x="438" y="106"/>
      <point x="438" y="218" type="curve" smooth="yes"/>
      <point x="438" y="314"/>
      <point x="364" y="363"/>
      <point x="298" y="395" type="curve"/>
      <point x="284" y="404"/>
      <point x="283" y="409"/>
      <point x="284" y="417" type="curve" smooth="yes"/>
      <point x="306" y="603" type="line"/>
      <point x="306" y="606"/>
      <point x="308" y="608"/>
      <point x="310" y="608" type="curve" smooth="yes"/>
      <point x="346" y="608"/>
      <point x="367" y="574"/>
      <point x="381" y="538" type="curve" smooth="yes"/>
      <point x="386" y="525"/>
      <point x="400" y="518"/>
      <point x="413" y="518" type="curve" smooth="yes"/>
      <point x="421" y="518"/>
      <point x="431" y="523"/>
      <point x="431" y="532" type="curve" smooth="yes"/>
      <point x="431" y="558"/>
      <point x="419" y="605"/>
      <point x="412" y="633" type="curve" smooth="yes"/>
      <point x="408" y="643"/>
      <point x="400" y="655"/>
      <point x="389" y="658" type="curve" smooth="yes"/>
      <point x="372" y="664"/>
      <point x="353" y="670"/>
      <point x="325" y="675" type="curve" smooth="yes"/>
      <point x="320" y="676"/>
      <point x="318" y="679"/>
      <point x="319" y="683" type="curve" smooth="yes"/>
      <point x="319" y="694"/>
      <point x="325" y="736"/>
      <point x="326" y="746" type="curve"/>
      <point x="326" y="754"/>
      <point x="320" y="762"/>
      <point x="313" y="762" type="curve" smooth="yes"/>
      <point x="300" y="762"/>
      <point x="259" y="760"/>
      <point x="257" y="746" type="curve" smooth="yes"/>
      <point x="250" y="686" type="line" smooth="yes"/>
      <point x="249" y="682"/>
      <point x="245" y="679"/>
      <point x="239" y="679" type="curve" smooth="yes"/>
      <point x="126" y="677"/>
      <point x="59" y="592"/>
      <point x="59" y="498" type="curve" smooth="yes"/>
      <point x="59" y="414"/>
      <point x="126" y="368"/>
      <point x="195" y="335" type="curve" smooth="yes"/>
      <point x="207" y="329"/>
      <point x="209" y="323"/>
      <point x="208" y="318" type="curve" smooth="yes"/>
      <point x="181" y="98" type="line" smooth="yes"/>
      <point x="180" y="93"/>
      <point x="175" y="93"/>
      <point x="170" y="95" type="curve"/>
      <point x="130" y="108"/>
      <point x="109" y="122"/>
      <point x="85" y="185" type="curve" smooth="yes"/>
      <point x="82" y="194"/>
      <point x="75" y="199"/>
      <point x="64" y="199" type="curve" smooth="yes"/>
      <point x="51" y="199"/>
      <point x="42" y="192"/>
      <point x="42" y="183" type="curve"/>
      <point x="44" y="156"/>
      <point x="44" y="114"/>
      <point x="51" y="88" type="curve" smooth="yes"/>
      <point x="53" y="80"/>
      <point x="60" y="74"/>
      <point x="64" y="68" type="curve" smooth="yes"/>
      <point x="94" y="44"/>
      <point x="136" y="30"/>
      <point x="165" y="25" type="curve" smooth="yes"/>
      <point x="168" y="24"/>
      <point x="173" y="21"/>
      <point x="172" y="15" type="curve"/>
      <point x="162" y="-61" type="line" smooth="yes"/>
      <point x="160" y="-75"/>
      <point x="172" y="-82"/>
    </contour>
    <contour>
      <point x="254" y="85" type="curve"/>
      <point x="248" y="85"/>
      <point x="246" y="87"/>
      <point x="246" y="94" type="curve"/>
      <point x="271" y="291" type="line" smooth="yes"/>
      <point x="271" y="295"/>
      <point x="275" y="298"/>
      <point x="279" y="296" type="curve"/>
      <point x="324" y="279"/>
      <point x="349" y="245"/>
      <point x="349" y="192" type="curve" smooth="yes"/>
      <point x="349" y="126"/>
      <point x="304" y="88"/>
    </contour>
    <contour>
      <point x="214" y="445" type="curve"/>
      <point x="172" y="469"/>
      <point x="154" y="492"/>
      <point x="154" y="531" type="curve" smooth="yes"/>
      <point x="154" y="587"/>
      <point x="193" y="613"/>
      <point x="234" y="614" type="curve"/>
      <point x="239" y="614"/>
      <point x="241" y="610"/>
      <point x="241" y="606" type="curve"/>
      <point x="223" y="446" type="line"/>
      <point x="223" y="444"/>
      <point x="222" y="442"/>
    </contour>
  </outline>
</glyph>
<glyph name="percent" format="1">
  <advance width="752"/>
  <unicode hex="0025"/>
  <outline>
    <contour>
      <point x="141" y="-41" type="curve" smooth="yes"/>
      <point x="679" y="689" type="line"/>
      <point x="680" y="690"/>
      <point x="681" y="694"/>
      <point x="681" y="695" type="curve" smooth="yes"/>
      <point x="681" y="704"/>
      <point x="672" y="713"/>
      <point x="664" y="714" type="curve" smooth="yes"/>
      <point x="642" y="715"/>
      <point x="626" y="711"/>
      <point x="613" y="692" type="curve" smooth="yes"/>
      <point x="71" y="-39" type="line"/>
      <point x="70" y="-40"/>
      <point x="70" y="-42"/>
      <point x="70" y="-44" type="curve" smooth="yes"/>
      <point x="70" y="-51"/>
      <point x="81" y="-60"/>
      <point x="92" y="-61" type="curve" smooth="yes"/>
      <point x="111" y="-62"/>
      <point x="127" y="-59"/>
    </contour>
    <contour>
      <point x="334" y="484" type="curve" smooth="yes"/>
      <point x="334" y="570"/>
      <point x="282" y="661"/>
      <point x="187" y="661" type="curve" smooth="yes"/>
      <point x="82" y="661"/>
      <point x="16" y="567"/>
      <point x="16" y="472" type="curve" smooth="yes"/>
      <point x="16" y="382"/>
      <point x="66" y="285"/>
      <point x="165" y="285" type="curve" smooth="yes"/>
      <point x="274" y="285"/>
      <point x="334" y="387"/>
    </contour>
    <contour>
      <point x="94" y="483" type="curve" smooth="yes"/>
      <point x="94" y="546"/>
      <point x="107" y="615"/>
      <point x="174" y="615" type="curve" smooth="yes"/>
      <point x="246" y="615"/>
      <point x="256" y="544"/>
      <point x="256" y="471" type="curve" smooth="yes"/>
      <point x="256" y="408"/>
      <point x="249" y="328"/>
      <point x="178" y="328" type="curve" smooth="yes"/>
      <point x="102" y="328"/>
      <point x="94" y="416"/>
    </contour>
    <contour>
      <point x="736" y="185" type="curve" smooth="yes"/>
      <point x="736" y="271"/>
      <point x="684" y="362"/>
      <point x="589" y="362" type="curve" smooth="yes"/>
      <point x="484" y="362"/>
      <point x="418" y="268"/>
      <point x="418" y="173" type="curve" smooth="yes"/>
      <point x="418" y="83"/>
      <point x="468" y="-14"/>
      <point x="567" y="-14" type="curve" smooth="yes"/>
      <point x="676" y="-14"/>
      <point x="736" y="88"/>
    </contour>
    <contour>
      <point x="496" y="184" type="curve" smooth="yes"/>
      <point x="496" y="247"/>
      <point x="509" y="316"/>
      <point x="576" y="316" type="curve" smooth="yes"/>
      <point x="648" y="316"/>
      <point x="658" y="245"/>
      <point x="658" y="172" type="curve" smooth="yes"/>
      <point x="658" y="109"/>
      <point x="651" y="29"/>
      <point x="580" y="29" type="curve" smooth="yes"/>
      <point x="503" y="29"/>
      <point x="496" y="117"/>
    </contour>
  </outline>
</glyph>
<glyph name="quotesingle" format="1">
  <advance width="213"/>
  <unicode hex="0027"/>
  <outline>
    <contour>
      <point x="69" y="555" type="curve" smooth="yes"/>
      <point x="71" y="548"/>
      <point x="81" y="543"/>
      <point x="94" y="547" type="curve" smooth="yes"/>
      <point x="108" y="558"/>
      <point x="137" y="594"/>
      <point x="138" y="622" type="curve" smooth="yes"/>
      <point x="142" y="655"/>
      <point x="149" y="719"/>
      <point x="144" y="755" type="curve" smooth="yes"/>
      <point x="137" y="768"/>
      <point x="129" y="776"/>
      <point x="115" y="771" type="curve"/>
      <point x="100" y="769"/>
      <point x="87" y="759"/>
      <point x="76" y="745" type="curve" smooth="yes"/>
      <point x="70" y="740"/>
      <point x="64" y="711"/>
      <point x="64" y="689" type="curve" smooth="yes"/>
      <point x="64" y="683"/>
      <point x="67" y="635"/>
      <point x="66" y="603" type="curve"/>
      <point x="66" y="587"/>
      <point x="67" y="570"/>
    </contour>
  </outline>
</glyph>
<glyph name="parenleft" format="1">
  <advance width="334"/>
  <unicode hex="0028"/>
  <outline>
    <contour>
      <point x="256" y="-214" type="curve" smooth="yes"/>
      <point x="270" y="-214"/>
      <point x="292" y="-203"/>
      <point x="292" y="-189" type="curve" smooth="yes"/>
      <point x="292" y="-179"/>
      <point x="277" y="-164"/>
      <point x="268" y="-154" type="curve" smooth="yes"/>
      <point x="210" y="-87"/>
      <point x="133" y="111"/>
      <point x="133" y="281" type="curve" smooth="yes"/>
      <point x="133" y="441"/>
      <point x="205" y="581"/>
      <point x="269" y="646" type="curve" smooth="yes"/>
      <point x="278" y="656"/>
      <point x="292" y="671"/>
      <point x="292" y="681" type="curve" smooth="yes"/>
      <point x="292" y="694"/>
      <point x="270" y="705"/>
      <point x="257" y="705" type="curve" smooth="yes"/>
      <point x="247" y="705"/>
      <point x="229" y="697"/>
      <point x="219" y="687" type="curve" smooth="yes"/>
      <point x="151" y="623"/>
      <point x="40" y="439"/>
      <point x="40" y="269" type="curve" smooth="yes"/>
      <point x="40" y="99"/>
      <point x="149" y="-124"/>
      <point x="220" y="-196" type="curve" smooth="yes"/>
      <point x="230" y="-207"/>
      <point x="247" y="-214"/>
    </contour>
  </outline>
</glyph>
<glyph name="asterisk" format="1">
  <advance width="355"/>
  <unicode hex="002A"/>
  <outline>
    <contour>
      <point x="212" y="397" type="curve"/>
      <point x="210" y="428"/>
      <point x="206" y="459"/>
      <point x="203" y="485" type="curve"/>
      <point x="231" y="475"/>
      <point x="259" y="461"/>
      <point x="292" y="449" type="curve" smooth="yes"/>
      <point x="302" y="446"/>
      <point x="321" y="451"/>
      <point x="321" y="465" type="curve" smooth="yes"/>
      <point x="321" y="474"/>
      <point x="317" y="483"/>
      <point x="310" y="486" type="curve"/>
      <point x="278" y="502"/>
      <point x="249" y="514"/>
      <point x="223" y="525" type="curve"/>
      <point x="299" y="579" type="line"/>
      <point x="306" y="583"/>
      <point x="308" y="593"/>
      <point x="308" y="600" type="curve" smooth="yes"/>
      <point x="308" y="610"/>
      <point x="298" y="616"/>
      <point x="289" y="616" type="curve" smooth="yes"/>
      <point x="284" y="616"/>
      <point x="275" y="613"/>
      <point x="271" y="609" type="curve"/>
      <point x="241" y="592"/>
      <point x="219" y="576"/>
      <point x="195" y="561" type="curve"/>
      <point x="186" y="647" type="line" smooth="yes"/>
      <point x="184" y="659"/>
      <point x="174" y="670"/>
      <point x="164" y="670" type="curve" smooth="yes"/>
      <point x="151" y="670"/>
      <point x="140" y="659"/>
      <point x="142" y="640" type="curve" smooth="yes"/>
      <point x="145" y="611"/>
      <point x="148" y="584"/>
      <point x="152" y="556" type="curve"/>
      <point x="122" y="568"/>
      <point x="93" y="580"/>
      <point x="65" y="591" type="curve"/>
      <point x="53" y="596"/>
      <point x="35" y="591"/>
      <point x="35" y="577" type="curve" smooth="yes"/>
      <point x="35" y="569"/>
      <point x="37" y="558"/>
      <point x="50" y="553" type="curve"/>
      <point x="79" y="540"/>
      <point x="107" y="528"/>
      <point x="133" y="516" type="curve"/>
      <point x="57" y="463" type="line"/>
      <point x="50" y="458"/>
      <point x="48" y="449"/>
      <point x="48" y="442" type="curve" smooth="yes"/>
      <point x="48" y="431"/>
      <point x="58" y="427"/>
      <point x="66" y="427" type="curve" smooth="yes"/>
      <point x="71" y="427"/>
      <point x="81" y="429"/>
      <point x="85" y="432" type="curve"/>
      <point x="115" y="449"/>
      <point x="137" y="465"/>
      <point x="160" y="480" type="curve"/>
      <point x="170" y="390" type="line" smooth="yes"/>
      <point x="171" y="380"/>
      <point x="182" y="371"/>
      <point x="191" y="371" type="curve" smooth="yes"/>
      <point x="204" y="371"/>
      <point x="214" y="382"/>
    </contour>
  </outline>
</glyph>
<glyph name="comma" format="1">
  <advance width="237"/>
  <unicode hex="002C"/>
  <outline>
    <contour>
      <point x="189" y="23" type="curve" smooth="yes"/>
      <point x="189" y="80"/>
      <point x="153" y="122"/>
      <point x="103" y="122" type="curve" smooth="yes"/>
      <point x="73" y="122"/>
      <point x="46" y="102"/>
      <point x="46" y="73" type="curve" smooth="yes"/>
      <point x="46" y="49"/>
      <point x="65" y="32"/>
      <point x="94" y="28" type="curve" smooth="yes"/>
      <point x="116" y="25"/>
      <point x="133" y="1"/>
      <point x="133" y="-16" type="curve" smooth="yes"/>
      <point x="133" y="-84"/>
      <point x="80" y="-115"/>
      <point x="36" y="-124" type="curve" smooth="yes"/>
      <point x="27" y="-126"/>
      <point x="22" y="-131"/>
      <point x="22" y="-136" type="curve" smooth="yes"/>
      <point x="22" y="-142"/>
      <point x="28" y="-147"/>
      <point x="40" y="-147" type="curve" smooth="yes"/>
      <point x="93" y="-147"/>
      <point x="189" y="-80"/>
    </contour>
  </outline>
</glyph>
<glyph name="hyphen" format="1">
  <advance width="286"/>
  <unicode hex="002D"/>
  <outline>
    <contour>
      <point x="234" y="184" type="curve" smooth="yes"/>
      <point x="250" y="186"/>
      <point x="256" y="222"/>
      <point x="256" y="247" type="curve" smooth="yes"/>
      <point x="256" y="251"/>
      <point x="251" y="253"/>
      <point x="247" y="253" type="curve"/>
      <point x="180" y="246"/>
      <point x="114" y="237"/>
      <point x="47" y="228" type="curve"/>
      <point x="37" y="227"/>
      <point x="30" y="187"/>
      <point x="30" y="165" type="curve" smooth="yes"/>
      <point x="30" y="161"/>
      <point x="31" y="159"/>
      <point x="37" y="159" type="curve"/>
      <point x="107" y="165"/>
      <point x="171" y="176"/>
    </contour>
  </outline>
</glyph>
<glyph name="zero" format="1">
  <advance width="552"/>
  <unicode hex="0030"/>
  <outline>
    <contour>
      <point x="270" y="-14" type="curve" smooth="yes"/>
      <point x="444" y="-14"/>
      <point x="515" y="176"/>
      <point x="515" y="340" type="curve" smooth="yes"/>
      <point x="515" y="500"/>
      <point x="442" y="678"/>
      <point x="282" y="678" type="curve" smooth="yes"/>
      <point x="108" y="678"/>
      <point x="36" y="492"/>
      <point x="36" y="325" type="curve" smooth="yes"/>
      <point x="36" y="163"/>
      <point x="110" y="-14"/>
    </contour>
    <contour>
      <point x="289" y="51" type="curve" smooth="yes"/>
      <point x="191" y="51"/>
      <point x="145" y="197"/>
      <point x="145" y="343" type="curve" smooth="yes"/>
      <point x="145" y="489"/>
      <point x="174" y="610"/>
      <point x="261" y="610" type="curve" smooth="yes"/>
      <point x="359" y="610"/>
      <point x="408" y="469"/>
      <point x="408" y="323" type="curve" smooth="yes"/>
      <point x="408" y="176"/>
      <point x="376" y="51"/>
    </contour>
  </outline>
</glyph>
<glyph name="one" format="1">
  <advance width="552"/>
  <unicode hex="0031"/>
  <outline>
    <contour>
      <point x="133" y="-3" type="curve" smooth="yes"/>
      <point x="185" y="-3"/>
      <point x="235" y="2"/>
      <point x="293" y="2" type="curve" smooth="yes"/>
      <point x="350" y="2"/>
      <point x="394" y="-3"/>
      <point x="449" y="-3" type="curve" smooth="yes"/>
      <point x="464" y="-3"/>
      <point x="471" y="6"/>
      <point x="471" y="17" type="curve" smooth="yes"/>
      <point x="471" y="27"/>
      <point x="463" y="35"/>
      <point x="449" y="40" type="curve" smooth="yes"/>
      <point x="368" y="61"/>
      <point x="344" y="68"/>
      <point x="344" y="143" type="curve" smooth="yes"/>
      <point x="344" y="605" type="line" smooth="yes"/>
      <point x="344" y="633"/>
      <point x="345" y="650"/>
      <point x="348" y="670" type="curve"/>
      <point x="349" y="678"/>
      <point x="342" y="686"/>
      <point x="331" y="686" type="curve" smooth="yes"/>
      <point x="321" y="686"/>
      <point x="312" y="681"/>
      <point x="295" y="668" type="curve" smooth="yes"/>
      <point x="259" y="639"/>
      <point x="223" y="631"/>
      <point x="155" y="622" type="curve" smooth="yes"/>
      <point x="139" y="620"/>
      <point x="126" y="611"/>
      <point x="126" y="599" type="curve" smooth="yes"/>
      <point x="126" y="585"/>
      <point x="139" y="579"/>
      <point x="152" y="577" type="curve" smooth="yes"/>
      <point x="200" y="573"/>
      <point x="240" y="564"/>
      <point x="240" y="513" type="curve" smooth="yes"/>
      <point x="240" y="145" type="line" smooth="yes"/>
      <point x="240" y="66"/>
      <point x="206" y="57"/>
      <point x="133" y="41" type="curve" smooth="yes"/>
      <point x="118" y="37"/>
      <point x="111" y="28"/>
      <point x="111" y="18" type="curve" smooth="yes"/>
      <point x="111" y="7"/>
      <point x="117" y="-3"/>
    </contour>
  </outline>
</glyph>
<glyph name="two" format="1">
  <advance width="542"/>
  <unicode hex="0032"/>
  <outline>
    <contour>
      <point x="469" y="-3" type="curve" smooth="yes"/>
      <point x="477" y="-3"/>
      <point x="488" y="0"/>
      <point x="492" y="23" type="curve" smooth="yes"/>
      <point x="503" y="77"/>
      <point x="523" y="134"/>
      <point x="523" y="146" type="curve" smooth="yes"/>
      <point x="523" y="152"/>
      <point x="519" y="164"/>
      <point x="506" y="164" type="curve" smooth="yes"/>
      <point x="488" y="164"/>
      <point x="478" y="147"/>
      <point x="471" y="134" type="curve" smooth="yes"/>
      <point x="451" y="95"/>
      <point x="426" y="74"/>
      <point x="373" y="73" type="curve" smooth="yes"/>
      <point x="341" y="73"/>
      <point x="309" y="72"/>
      <point x="277" y="72" type="curve" smooth="yes"/>
      <point x="237" y="72"/>
      <point x="223" y="73"/>
      <point x="200" y="75" type="curve" smooth="yes"/>
      <point x="191" y="76"/>
      <point x="184" y="77"/>
      <point x="184" y="82" type="curve" smooth="yes"/>
      <point x="192" y="89"/>
      <point x="330" y="257"/>
      <point x="382" y="314" type="curve" smooth="yes"/>
      <point x="428" y="368"/>
      <point x="460" y="444"/>
      <point x="460" y="501" type="curve" smooth="yes"/>
      <point x="460" y="606"/>
      <point x="392" y="678"/>
      <point x="279" y="678" type="curve" smooth="yes"/>
      <point x="141" y="678"/>
      <point x="58" y="584"/>
      <point x="58" y="542" type="curve" smooth="yes"/>
      <point x="58" y="522"/>
      <point x="74" y="497"/>
      <point x="90" y="497" type="curve" smooth="yes"/>
      <point x="105" y="497"/>
      <point x="117" y="511"/>
      <point x="123" y="521" type="curve"/>
      <point x="152" y="572"/>
      <point x="188" y="613"/>
      <point x="242" y="613" type="curve" smooth="yes"/>
      <point x="302" y="613"/>
      <point x="345" y="570"/>
      <point x="345" y="486" type="curve" smooth="yes"/>
      <point x="345" y="399"/>
      <point x="277" y="303"/>
      <point x="211" y="225" type="curve" smooth="yes"/>
      <point x="47" y="30" type="line" smooth="yes"/>
      <point x="42" y="24"/>
      <point x="39" y="23"/>
      <point x="39" y="16" type="curve" smooth="yes"/>
      <point x="39" y="10"/>
      <point x="55" y="-2"/>
      <point x="60" y="-2" type="curve" smooth="yes"/>
      <point x="82" y="-2"/>
      <point x="262" y="3"/>
      <point x="318" y="3" type="curve" smooth="yes"/>
      <point x="374" y="3"/>
      <point x="447" y="-3"/>
    </contour>
  </outline>
</glyph>
<glyph name="three" format="1">
  <advance width="552"/>
  <unicode hex="0033"/>
  <outline>
    <contour>
      <point x="187" y="-38" type="curve" smooth="yes"/>
      <point x="338" y="-38"/>
      <point x="495" y="59"/>
      <point x="495" y="220" type="curve" smooth="yes"/>
      <point x="495" y="316"/>
      <point x="421" y="382"/>
      <point x="338" y="384" type="curve" smooth="yes"/>
      <point x="334" y="384"/>
      <point x="334" y="388"/>
      <point x="337" y="390" type="curve"/>
      <point x="416" y="438"/>
      <point x="445" y="500"/>
      <point x="445" y="556" type="curve" smooth="yes"/>
      <point x="445" y="628"/>
      <point x="372" y="678"/>
      <point x="298" y="678" type="curve" smooth="yes"/>
      <point x="144" y="678"/>
      <point x="83" y="581"/>
      <point x="83" y="547" type="curve" smooth="yes"/>
      <point x="83" y="536"/>
      <point x="95" y="508"/>
      <point x="121" y="508" type="curve" smooth="yes"/>
      <point x="136" y="508"/>
      <point x="165" y="610"/>
      <point x="250" y="610" type="curve" smooth="yes"/>
      <point x="303" y="610"/>
      <point x="338" y="573"/>
      <point x="338" y="516" type="curve" smooth="yes"/>
      <point x="338" y="442"/>
      <point x="270" y="392"/>
      <point x="208" y="364" type="curve" smooth="yes"/>
      <point x="191" y="357"/>
      <point x="175" y="344"/>
      <point x="174" y="317" type="curve" smooth="yes"/>
      <point x="173" y="302"/>
      <point x="185" y="292"/>
      <point x="193" y="296" type="curve" smooth="yes"/>
      <point x="218" y="309"/>
      <point x="246" y="312"/>
      <point x="262" y="312" type="curve" smooth="yes"/>
      <point x="344" y="312"/>
      <point x="385" y="236"/>
      <point x="385" y="163" type="curve" smooth="yes"/>
      <point x="385" y="85"/>
      <point x="308" y="23"/>
      <point x="230" y="23" type="curve" smooth="yes"/>
      <point x="191" y="23"/>
      <point x="168" y="39"/>
      <point x="150" y="53" type="curve" smooth="yes"/>
      <point x="137" y="62"/>
      <point x="125" y="71"/>
      <point x="110" y="71" type="curve" smooth="yes"/>
      <point x="91" y="71"/>
      <point x="64" y="38"/>
      <point x="64" y="21" type="curve" smooth="yes"/>
      <point x="64" y="-18"/>
      <point x="135" y="-38"/>
    </contour>
  </outline>
</glyph>
<glyph name="four" format="1">
  <advance width="542"/>
  <unicode hex="0034"/>
  <outline>
    <contour>
      <point x="243" y="-4" type="curve" smooth="yes"/>
      <point x="306" y="-4"/>
      <point x="319" y="4"/>
      <point x="370" y="4" type="curve" smooth="yes"/>
      <point x="422" y="4"/>
      <point x="438" y="-4"/>
      <point x="499" y="-4" type="curve" smooth="yes"/>
      <point x="515" y="-4"/>
      <point x="527" y="4"/>
      <point x="527" y="17" type="curve" smooth="yes"/>
      <point x="527" y="32"/>
      <point x="517" y="38"/>
      <point x="498" y="44" type="curve" smooth="yes"/>
      <point x="448" y="55"/>
      <point x="419" y="74"/>
      <point x="419" y="110" type="curve" smooth="yes"/>
      <point x="419" y="183" type="line" smooth="yes"/>
      <point x="419" y="184"/>
      <point x="427" y="188"/>
      <point x="433" y="189" type="curve"/>
      <point x="441" y="190"/>
      <point x="453" y="191"/>
      <point x="466" y="191" type="curve" smooth="yes"/>
      <point x="483" y="191"/>
      <point x="503" y="190"/>
      <point x="519" y="190" type="curve" smooth="yes"/>
      <point x="523" y="190"/>
      <point x="541" y="236"/>
      <point x="541" y="251" type="curve" smooth="yes"/>
      <point x="541" y="255"/>
      <point x="536" y="259"/>
      <point x="529" y="259" type="curve"/>
      <point x="506" y="258"/>
      <point x="486" y="257"/>
      <point x="466" y="257" type="curve" smooth="yes"/>
      <point x="453" y="257"/>
      <point x="439" y="257"/>
      <point x="423" y="258" type="curve"/>
      <point x="420" y="258"/>
      <point x="418" y="261"/>
      <point x="418" y="264" type="curve" smooth="yes"/>
      <point x="418" y="383" type="line" smooth="yes"/>
      <point x="418" y="425"/>
      <point x="418" y="447"/>
      <point x="403" y="447" type="curve" smooth="yes"/>
      <point x="390" y="447"/>
      <point x="353" y="445"/>
      <point x="325" y="434" type="curve"/>
      <point x="314" y="430"/>
      <point x="313" y="426"/>
      <point x="313" y="412" type="curve" smooth="yes"/>
      <point x="313" y="265" type="line" smooth="yes"/>
      <point x="313" y="261"/>
      <point x="306" y="257"/>
      <point x="301" y="257" type="curve" smooth="yes"/>
      <point x="148" y="257" type="line" smooth="yes"/>
      <point x="144" y="257"/>
      <point x="146" y="263"/>
      <point x="148" y="266" type="curve" smooth="yes"/>
      <point x="418" y="676" type="line"/>
      <point x="418" y="676"/>
      <point x="427" y="690"/>
      <point x="420" y="690" type="curve" smooth="yes"/>
      <point x="352" y="690" type="line" smooth="yes"/>
      <point x="341" y="690"/>
      <point x="328" y="674"/>
      <point x="320" y="662" type="curve" smooth="yes"/>
      <point x="61" y="251" type="line" smooth="yes"/>
      <point x="49" y="233"/>
      <point x="44" y="223"/>
      <point x="21" y="193" type="curve"/>
      <point x="20" y="192"/>
      <point x="20" y="191"/>
      <point x="20" y="190" type="curve" smooth="yes"/>
      <point x="20" y="186"/>
      <point x="26" y="180"/>
      <point x="31" y="180" type="curve" smooth="yes"/>
      <point x="140" y="180"/>
      <point x="208" y="187"/>
      <point x="298" y="187" type="curve" smooth="yes"/>
      <point x="299" y="187"/>
      <point x="313" y="183"/>
      <point x="313" y="177" type="curve" smooth="yes"/>
      <point x="313" y="100" type="line" smooth="yes"/>
      <point x="313" y="65"/>
      <point x="300" y="50"/>
      <point x="242" y="44" type="curve" smooth="yes"/>
      <point x="222" y="40"/>
      <point x="212" y="32"/>
      <point x="212" y="18" type="curve" smooth="yes"/>
      <point x="212" y="4"/>
      <point x="227" y="-4"/>
    </contour>
  </outline>
</glyph>
<glyph name="five" format="1">
  <advance width="542"/>
  <unicode hex="0035"/>
  <outline>
    <contour>
      <point x="121" y="-38" type="curve" smooth="yes"/>
      <point x="201" y="-38"/>
      <point x="274" y="-19"/>
      <point x="334" y="13" type="curve" smooth="yes"/>
      <point x="417" y="59"/>
      <point x="471" y="132"/>
      <point x="471" y="208" type="curve" smooth="yes"/>
      <point x="471" y="297"/>
      <point x="429" y="350"/>
      <point x="339" y="390" type="curve" smooth="yes"/>
      <point x="288" y="415"/>
      <point x="219" y="435"/>
      <point x="170" y="449" type="curve" smooth="yes"/>
      <point x="160" y="453"/>
      <point x="157" y="460"/>
      <point x="158" y="469" type="curve"/>
      <point x="161" y="490"/>
      <point x="183" y="560"/>
      <point x="196" y="569" type="curve" smooth="yes"/>
      <point x="223" y="576"/>
      <point x="323" y="582"/>
      <point x="377" y="588" type="curve" smooth="yes"/>
      <point x="393" y="590"/>
      <point x="404" y="600"/>
      <point x="414" y="622" type="curve" smooth="yes"/>
      <point x="420" y="632"/>
      <point x="426" y="645"/>
      <point x="433" y="657" type="curve" smooth="yes"/>
      <point x="438" y="666"/>
      <point x="432" y="676"/>
      <point x="421" y="675" type="curve" smooth="yes"/>
      <point x="332" y="667"/>
      <point x="255" y="655"/>
      <point x="183" y="637" type="curve" smooth="yes"/>
      <point x="160" y="632"/>
      <point x="146" y="620"/>
      <point x="139" y="599" type="curve" smooth="yes"/>
      <point x="124" y="552"/>
      <point x="87" y="467"/>
      <point x="87" y="421" type="curve" smooth="yes"/>
      <point x="87" y="405"/>
      <point x="94" y="388"/>
      <point x="112" y="375" type="curve"/>
      <point x="302" y="329"/>
      <point x="367" y="286"/>
      <point x="367" y="208" type="curve" smooth="yes"/>
      <point x="367" y="117"/>
      <point x="293" y="26"/>
      <point x="120" y="23" type="curve" smooth="yes"/>
      <point x="100" y="23"/>
      <point x="81" y="4"/>
      <point x="81" y="-11" type="curve" smooth="yes"/>
      <point x="81" y="-27"/>
      <point x="101" y="-38"/>
    </contour>
  </outline>
</glyph>
<glyph name="six" format="1">
  <advance width="552"/>
  <unicode hex="0036"/>
  <outline>
    <contour>
      <point x="287" y="-16" type="curve" smooth="yes"/>
      <point x="400" y="-16"/>
      <point x="526" y="71"/>
      <point x="526" y="202" type="curve" smooth="yes"/>
      <point x="526" y="287"/>
      <point x="456" y="344"/>
      <point x="377" y="344" type="curve" smooth="yes"/>
      <point x="342" y="344"/>
      <point x="297" y="325"/>
      <point x="269" y="303" type="curve" smooth="yes"/>
      <point x="256" y="293"/>
      <point x="244" y="283"/>
      <point x="234" y="271" type="curve" smooth="yes"/>
      <point x="215" y="249"/>
      <point x="220" y="224"/>
      <point x="241" y="241" type="curve" smooth="yes"/>
      <point x="265" y="258"/>
      <point x="289" y="263"/>
      <point x="326" y="263" type="curve" smooth="yes"/>
      <point x="383" y="263"/>
      <point x="423" y="213"/>
      <point x="423" y="160" type="curve" smooth="yes"/>
      <point x="423" y="88"/>
      <point x="371" y="54"/>
      <point x="313" y="55" type="curve" smooth="yes"/>
      <point x="242" y="57"/>
      <point x="161" y="119"/>
      <point x="159" y="234" type="curve" smooth="yes"/>
      <point x="159" y="330"/>
      <point x="203" y="427"/>
      <point x="266" y="500" type="curve" smooth="yes"/>
      <point x="319" y="562"/>
      <point x="389" y="611"/>
      <point x="469" y="641" type="curve" smooth="yes"/>
      <point x="477" y="644"/>
      <point x="495" y="653"/>
      <point x="497" y="673" type="curve" smooth="yes"/>
      <point x="497" y="680"/>
      <point x="491" y="698"/>
      <point x="460" y="689" type="curve" smooth="yes"/>
      <point x="363" y="663"/>
      <point x="277" y="611"/>
      <point x="210" y="545" type="curve" smooth="yes"/>
      <point x="115" y="454"/>
      <point x="48" y="333"/>
      <point x="48" y="210" type="curve" smooth="yes"/>
      <point x="48" y="59"/>
      <point x="167" y="-16"/>
    </contour>
  </outline>
</glyph>
<glyph name="seven" format="1">
  <advance width="552"/>
  <unicode hex="0037"/>
  <outline>
    <contour>
      <point x="143" y="-32" type="curve" smooth="yes"/>
      <point x="149" y="-32"/>
      <point x="158" y="-15"/>
      <point x="164" y="-3" type="curve" smooth="yes"/>
      <point x="494" y="582" type="line" smooth="yes"/>
      <point x="504" y="600"/>
      <point x="533" y="640"/>
      <point x="533" y="657" type="curve" smooth="yes"/>
      <point x="533" y="662"/>
      <point x="530" y="671"/>
      <point x="527" y="671" type="curve" smooth="yes"/>
      <point x="507" y="668"/>
      <point x="380" y="665"/>
      <point x="262" y="665" type="curve" smooth="yes"/>
      <point x="212" y="665"/>
      <point x="188" y="667"/>
      <point x="156" y="667" type="curve" smooth="yes"/>
      <point x="112" y="667"/>
      <point x="70" y="676"/>
      <point x="67" y="676" type="curve" smooth="yes"/>
      <point x="63" y="676"/>
      <point x="56" y="674"/>
      <point x="55" y="663" type="curve" smooth="yes"/>
      <point x="52" y="632"/>
      <point x="45" y="588"/>
      <point x="37" y="552" type="curve"/>
      <point x="35" y="546"/>
      <point x="32" y="534"/>
      <point x="32" y="525" type="curve" smooth="yes"/>
      <point x="32" y="519"/>
      <point x="33" y="508"/>
      <point x="40" y="508" type="curve" smooth="yes"/>
      <point x="50" y="508"/>
      <point x="60" y="526"/>
      <point x="64" y="534" type="curve" smooth="yes"/>
      <point x="87" y="574"/>
      <point x="110" y="581"/>
      <point x="143" y="581" type="curve" smooth="yes"/>
      <point x="460" y="581" type="line"/>
      <point x="443" y="624" type="line"/>
      <point x="138" y="70" type="line" smooth="yes"/>
      <point x="123" y="44"/>
      <point x="109" y="18"/>
      <point x="109" y="11" type="curve" smooth="yes"/>
      <point x="109" y="-14"/>
      <point x="119" y="-32"/>
    </contour>
  </outline>
</glyph>
<glyph name="eight" format="1">
  <advance width="542"/>
  <unicode hex="0038"/>
  <outline>
    <contour>
      <point x="259" y="-14" type="curve" smooth="yes"/>
      <point x="371" y="-14"/>
      <point x="484" y="66"/>
      <point x="484" y="177" type="curve" smooth="yes"/>
      <point x="484" y="260"/>
      <point x="425" y="313"/>
      <point x="360" y="353" type="curve" smooth="yes"/>
      <point x="349" y="361"/>
      <point x="348" y="364"/>
      <point x="366" y="376" type="curve" smooth="yes"/>
      <point x="390" y="392"/>
      <point x="403" y="404"/>
      <point x="411" y="410" type="curve" smooth="yes"/>
      <point x="438" y="432"/>
      <point x="464" y="472"/>
      <point x="464" y="533" type="curve" smooth="yes"/>
      <point x="464" y="621"/>
      <point x="374" y="677"/>
      <point x="282" y="677" type="curve" smooth="yes"/>
      <point x="181" y="677"/>
      <point x="75" y="610"/>
      <point x="75" y="526" type="curve" smooth="yes"/>
      <point x="75" y="435"/>
      <point x="128" y="405"/>
      <point x="189" y="349" type="curve" smooth="yes"/>
      <point x="198" y="341"/>
      <point x="202" y="340"/>
      <point x="192" y="335" type="curve" smooth="yes"/>
      <point x="142" y="305"/>
      <point x="58" y="253"/>
      <point x="58" y="152" type="curve" smooth="yes"/>
      <point x="58" y="54"/>
      <point x="155" y="-14"/>
    </contour>
    <contour>
      <point x="274" y="49" type="curve" smooth="yes"/>
      <point x="198" y="49"/>
      <point x="151" y="123"/>
      <point x="151" y="180" type="curve" smooth="yes"/>
      <point x="151" y="230"/>
      <point x="183" y="259"/>
      <point x="235" y="293" type="curve" smooth="yes"/>
      <point x="240" y="297"/>
      <point x="244" y="299"/>
      <point x="248" y="299" type="curve" smooth="yes"/>
      <point x="254" y="299"/>
      <point x="260" y="295"/>
      <point x="269" y="290" type="curve"/>
      <point x="313" y="264"/>
      <point x="383" y="205"/>
      <point x="383" y="149" type="curve" smooth="yes"/>
      <point x="383" y="95"/>
      <point x="337" y="49"/>
    </contour>
    <contour>
      <point x="301" y="401" type="curve"/>
      <point x="297" y="399"/>
      <point x="290" y="402"/>
      <point x="286" y="405" type="curve"/>
      <point x="221" y="446"/>
      <point x="171" y="484"/>
      <point x="171" y="533" type="curve" smooth="yes"/>
      <point x="170" y="577"/>
      <point x="208" y="612"/>
      <point x="275" y="612" type="curve" smooth="yes"/>
      <point x="337" y="612"/>
      <point x="378" y="568"/>
      <point x="378" y="521" type="curve" smooth="yes"/>
      <point x="378" y="476"/>
      <point x="354" y="431"/>
    </contour>
  </outline>
</glyph>
<glyph name="less" format="1">
  <advance width="560"/>
  <unicode hex="003C"/>
  <outline>
    <contour>
      <point x="508" y="47" type="curve" smooth="yes"/>
      <point x="508" y="59"/>
      <point x="501" y="98"/>
      <point x="476" y="111" type="curve" smooth="yes"/>
      <point x="159" y="271" type="line"/>
      <point x="156" y="273"/>
      <point x="154" y="277"/>
      <point x="158" y="278" type="curve"/>
      <point x="465" y="434" type="line" smooth="yes"/>
      <point x="491" y="447"/>
      <point x="506" y="486"/>
      <point x="506" y="502" type="curve" smooth="yes"/>
      <point x="506" y="509"/>
      <point x="502" y="515"/>
      <point x="494" y="515" type="curve" smooth="yes"/>
      <point x="492" y="515"/>
      <point x="487" y="513"/>
      <point x="483" y="511" type="curve" smooth="yes"/>
      <point x="97" y="322" type="line" smooth="yes"/>
      <point x="70" y="309"/>
      <point x="53" y="272"/>
      <point x="53" y="261" type="curve" smooth="yes"/>
      <point x="53" y="252"/>
      <point x="86" y="236"/>
      <point x="108" y="225" type="curve" smooth="yes"/>
      <point x="481" y="35" type="line" smooth="yes"/>
      <point x="490" y="31"/>
      <point x="508" y="30"/>
    </contour>
  </outline>
</glyph>
<glyph name="question" format="1">
  <advance width="402"/>
  <unicode hex="003F"/>
  <outline>
    <contour>
      <point x="173" y="201" type="curve" smooth="yes"/>
      <point x="174" y="232"/>
      <point x="177" y="261"/>
      <point x="206" y="279" type="curve" smooth="yes"/>
      <point x="236" y="300"/>
      <point x="248" y="305"/>
      <point x="291" y="328" type="curve" smooth="yes"/>
      <point x="311" y="339"/>
      <point x="334" y="364"/>
      <point x="334" y="414" type="curve" smooth="yes"/>
      <point x="334" y="466"/>
      <point x="294" y="553"/>
      <point x="234" y="610" type="curve" smooth="yes"/>
      <point x="199" y="644"/>
      <point x="154" y="661"/>
      <point x="118" y="661" type="curve" smooth="yes"/>
      <point x="100" y="661"/>
      <point x="77" y="643"/>
      <point x="77" y="622" type="curve" smooth="yes"/>
      <point x="77" y="593"/>
      <point x="97" y="562"/>
      <point x="119" y="562" type="curve" smooth="yes"/>
      <point x="128" y="562"/>
      <point x="135" y="563"/>
      <point x="141" y="564" type="curve" smooth="yes"/>
      <point x="147" y="566"/>
      <point x="153" y="567"/>
      <point x="161" y="567" type="curve" smooth="yes"/>
      <point x="224" y="566"/>
      <point x="257" y="519"/>
      <point x="257" y="455" type="curve" smooth="yes"/>
      <point x="257" y="428"/>
      <point x="226" y="399"/>
      <point x="200" y="387" type="curve" smooth="yes"/>
      <point x="143" y="362"/>
      <point x="101" y="333"/>
      <point x="101" y="297" type="curve" smooth="yes"/>
      <point x="101" y="251"/>
      <point x="105" y="230"/>
      <point x="110" y="208" type="curve" smooth="yes"/>
      <point x="115" y="191"/>
      <point x="132" y="178"/>
      <point x="146" y="178" type="curve" smooth="yes"/>
      <point x="163" y="178"/>
      <point x="173" y="191"/>
    </contour>
    <contour>
      <point x="224" y="45" type="curve" smooth="yes"/>
      <point x="224" y="78"/>
      <point x="196" y="104"/>
      <point x="159" y="105" type="curve" smooth="yes"/>
      <point x="122" y="105"/>
      <point x="93" y="79"/>
      <point x="93" y="46" type="curve" smooth="yes"/>
      <point x="93" y="13"/>
      <point x="121" y="-14"/>
      <point x="158" y="-14" type="curve" smooth="yes"/>
      <point x="195" y="-14"/>
      <point x="224" y="12"/>
    </contour>
  </outline>
</glyph>
<glyph name="at" format="1">
  <advance width="816"/>
  <unicode hex="0040"/>
  <outline>
    <contour>
      <point x="416" y="-140" type="curve" smooth="yes"/>
      <point x="559" y="-140"/>
      <point x="698" y="-63"/>
      <point x="698" y="-25" type="curve" smooth="yes"/>
      <point x="698" y="-6"/>
      <point x="689" y="4"/>
      <point x="669" y="4" type="curve" smooth="yes"/>
      <point x="658" y="4"/>
      <point x="643" y="-8"/>
      <point x="628" y="-17" type="curve" smooth="yes"/>
      <point x="569" y="-51"/>
      <point x="486" y="-78"/>
      <point x="426" y="-78" type="curve" smooth="yes"/>
      <point x="255" y="-78"/>
      <point x="113" y="36"/>
      <point x="113" y="191" type="curve" smooth="yes"/>
      <point x="113" y="349"/>
      <point x="263" y="454"/>
      <point x="428" y="454" type="curve" smooth="yes"/>
      <point x="580" y="454"/>
      <point x="703" y="355"/>
      <point x="703" y="218" type="curve" smooth="yes"/>
      <point x="703" y="136"/>
      <point x="648" y="100"/>
      <point x="592" y="100" type="curve" smooth="yes"/>
      <point x="563" y="100"/>
      <point x="559" y="114"/>
      <point x="559" y="129" type="curve" smooth="yes"/>
      <point x="559" y="138"/>
      <point x="561" y="148"/>
      <point x="562" y="157" type="curve"/>
      <point x="581" y="272" type="line" smooth="yes"/>
      <point x="584" y="288"/>
      <point x="594" y="328"/>
      <point x="603" y="352" type="curve"/>
      <point x="607" y="356"/>
      <point x="583" y="360"/>
      <point x="577" y="360" type="curve" smooth="yes"/>
      <point x="563" y="360"/>
      <point x="556" y="341"/>
      <point x="542" y="341" type="curve" smooth="yes"/>
      <point x="538" y="341"/>
      <point x="533" y="342"/>
      <point x="517" y="347" type="curve" smooth="yes"/>
      <point x="504" y="351"/>
      <point x="468" y="355"/>
      <point x="446" y="355" type="curve" smooth="yes"/>
      <point x="325" y="355"/>
      <point x="214" y="277"/>
      <point x="214" y="156" type="curve" smooth="yes"/>
      <point x="214" y="86"/>
      <point x="273" y="47"/>
      <point x="347" y="47" type="curve" smooth="yes"/>
      <point x="418" y="47"/>
      <point x="466" y="84"/>
      <point x="478" y="84" type="curve" smooth="yes"/>
      <point x="491" y="84"/>
      <point x="495" y="47"/>
      <point x="554" y="43" type="curve" smooth="yes"/>
      <point x="666" y="43"/>
      <point x="774" y="116"/>
      <point x="774" y="236" type="curve" smooth="yes"/>
      <point x="774" y="390"/>
      <point x="620" y="516"/>
      <point x="453" y="516" type="curve" smooth="yes"/>
      <point x="238" y="516"/>
      <point x="42" y="401"/>
      <point x="42" y="181" type="curve" smooth="yes"/>
      <point x="42" y="-9"/>
      <point x="216" y="-140"/>
    </contour>
    <contour>
      <point x="391" y="97" type="curve" smooth="yes"/>
      <point x="351" y="97"/>
      <point x="303" y="116"/>
      <point x="303" y="176" type="curve" smooth="yes"/>
      <point x="303" y="259"/>
      <point x="365" y="303"/>
      <point x="426" y="303" type="curve" smooth="yes"/>
      <point x="472" y="303"/>
      <point x="498" y="286"/>
      <point x="498" y="254" type="curve" smooth="yes"/>
      <point x="498" y="251"/>
      <point x="498" y="247"/>
      <point x="497" y="244" type="curve"/>
      <point x="483" y="157" type="line" smooth="yes"/>
      <point x="478" y="131"/>
      <point x="467" y="122"/>
      <point x="454" y="116" type="curve" smooth="yes"/>
      <point x="433" y="105"/>
      <point x="416" y="97"/>
    </contour>
  </outline>
</glyph>
<glyph name="A" format="1">
  <advance width="748"/>
  <unicode hex="0041"/>
  <outline>
    <contour>
      <point x="28" y="-5" type="curve" smooth="yes"/>
      <point x="62" y="-5"/>
      <point x="106" y="5"/>
      <point x="152" y="5" type="curve" smooth="yes"/>
      <point x="190" y="5"/>
      <point x="227" y="2"/>
      <point x="246" y="2" type="curve" smooth="yes"/>
      <point x="263" y="2"/>
      <point x="276" y="7"/>
      <point x="276" y="21" type="curve" smooth="yes"/>
      <point x="276" y="36"/>
      <point x="268" y="45"/>
      <point x="248" y="55" type="curve" smooth="yes"/>
      <point x="223" y="66"/>
      <point x="202" y="81"/>
      <point x="202" y="109" type="curve" smooth="yes"/>
      <point x="202" y="123"/>
      <point x="227" y="207"/>
      <point x="236" y="235" type="curve" smooth="yes"/>
      <point x="241" y="250"/>
      <point x="248" y="255"/>
      <point x="254" y="255" type="curve" smooth="yes"/>
      <point x="449" y="255" type="line" smooth="yes"/>
      <point x="468" y="255"/>
      <point x="474" y="254"/>
      <point x="477" y="243" type="curve" smooth="yes"/>
      <point x="493" y="189"/>
      <point x="509" y="132"/>
      <point x="509" y="99" type="curve" smooth="yes"/>
      <point x="509" y="78"/>
      <point x="493" y="64"/>
      <point x="452" y="57" type="curve" smooth="yes"/>
      <point x="433" y="53"/>
      <point x="418" y="39"/>
      <point x="418" y="24" type="curve" smooth="yes"/>
      <point x="418" y="10"/>
      <point x="431" y="4"/>
      <point x="450" y="4" type="curve" smooth="yes"/>
      <point x="477" y="4"/>
      <point x="524" y="5"/>
      <point x="567" y="5" type="curve" smooth="yes"/>
      <point x="617" y="5"/>
      <point x="690" y="-5"/>
      <point x="721" y="-5" type="curve" smooth="yes"/>
      <point x="740" y="-5"/>
      <point x="754" y="-2"/>
      <point x="754" y="12" type="curve" smooth="yes"/>
      <point x="754" y="28"/>
      <point x="743" y="45"/>
      <point x="715" y="51" type="curve" smooth="yes"/>
      <point x="676" y="59"/>
      <point x="639" y="72"/>
      <point x="609" y="152" type="curve" smooth="yes"/>
      <point x="574" y="254"/>
      <point x="496" y="495"/>
      <point x="429" y="710" type="curve" smooth="yes"/>
      <point x="425" y="722"/>
      <point x="422" y="730"/>
      <point x="418" y="737" type="curve"/>
      <point x="417" y="739"/>
      <point x="412" y="739"/>
      <point x="411" y="738" type="curve"/>
      <point x="405" y="731"/>
      <point x="400" y="710"/>
      <point x="383" y="701" type="curve" smooth="yes"/>
      <point x="366" y="692"/>
      <point x="348" y="689"/>
      <point x="331" y="685" type="curve"/>
      <point x="328" y="662"/>
      <point x="323" y="643"/>
      <point x="316" y="622" type="curve" smooth="yes"/>
      <point x="245" y="423"/>
      <point x="208" y="320"/>
      <point x="130" y="136" type="curve" smooth="yes"/>
      <point x="105" y="84"/>
      <point x="70" y="67"/>
      <point x="40" y="57" type="curve" smooth="yes"/>
      <point x="9" y="45"/>
      <point x="-2" y="33"/>
      <point x="-2" y="17" type="curve" smooth="yes"/>
      <point x="-2" y="4"/>
      <point x="10" y="-5"/>
    </contour>
    <contour>
      <point x="293" y="318" type="line" smooth="yes"/>
      <point x="280" y="318"/>
      <point x="271" y="318"/>
      <point x="271" y="325" type="curve" smooth="yes"/>
      <point x="271" y="327"/>
      <point x="272" y="331"/>
      <point x="273" y="334" type="curve"/>
      <point x="355" y="558" type="line" smooth="yes"/>
      <point x="360" y="570"/>
      <point x="363" y="578"/>
      <point x="365" y="578" type="curve" smooth="yes"/>
      <point x="370" y="578"/>
      <point x="373" y="571"/>
      <point x="377" y="557" type="curve" smooth="yes"/>
      <point x="445" y="334" type="line"/>
      <point x="446" y="329"/>
      <point x="447" y="325"/>
      <point x="447" y="323" type="curve" smooth="yes"/>
      <point x="447" y="318"/>
      <point x="443" y="318"/>
      <point x="432" y="318" type="curve" smooth="yes"/>
    </contour>
  </outline>
</glyph>
<glyph name="B" format="1">
  <advance width="662"/>
  <unicode hex="0042"/>
  <outline>
    <contour>
      <point x="50" y="-5" type="curve" smooth="yes"/>
      <point x="119" y="-5"/>
      <point x="142" y="0"/>
      <point x="204" y="0" type="curve" smooth="yes"/>
      <point x="251" y="0"/>
      <point x="295" y="-4"/>
      <point x="316" y="-4" type="curve" smooth="yes"/>
      <point x="399" y="-4"/>
      <point x="458" y="10"/>
      <point x="505" y="33" type="curve" smooth="yes"/>
      <point x="552" y="56"/>
      <point x="620" y="92"/>
      <point x="620" y="209" type="curve" smooth="yes"/>
      <point x="620" y="333"/>
      <point x="527" y="365"/>
      <point x="460" y="386" type="curve" smooth="yes"/>
      <point x="454" y="388"/>
      <point x="455" y="395"/>
      <point x="460" y="397" type="curve" smooth="yes"/>
      <point x="497" y="410"/>
      <point x="515" y="420"/>
      <point x="538" y="443" type="curve" smooth="yes"/>
      <point x="555" y="459"/>
      <point x="576" y="498"/>
      <point x="576" y="546" type="curve" smooth="yes"/>
      <point x="576" y="663"/>
      <point x="491" y="706"/>
      <point x="317" y="706" type="curve" smooth="yes"/>
      <point x="248" y="706"/>
      <point x="230" y="701"/>
      <point x="185" y="701" type="curve" smooth="yes"/>
      <point x="136" y="701"/>
      <point x="126" y="702"/>
      <point x="62" y="702" type="curve" smooth="yes"/>
      <point x="42" y="702"/>
      <point x="31" y="694"/>
      <point x="31" y="681" type="curve" smooth="yes"/>
      <point x="31" y="668"/>
      <point x="41" y="658"/>
      <point x="64" y="655" type="curve" smooth="yes"/>
      <point x="114" y="647"/>
      <point x="132" y="626"/>
      <point x="132" y="570" type="curve" smooth="yes"/>
      <point x="132" y="116" type="line" smooth="yes"/>
      <point x="132" y="68"/>
      <point x="104" y="52"/>
      <point x="53" y="42" type="curve" smooth="yes"/>
      <point x="30" y="36"/>
      <point x="20" y="29"/>
      <point x="20" y="15" type="curve" smooth="yes"/>
      <point x="20" y="2"/>
      <point x="32" y="-5"/>
    </contour>
    <contour>
      <point x="321" y="63" type="curve" smooth="yes"/>
      <point x="266" y="63"/>
      <point x="235" y="77"/>
      <point x="235" y="126" type="curve" smooth="yes"/>
      <point x="235" y="319" type="line" smooth="yes"/>
      <point x="235" y="335"/>
      <point x="250" y="354"/>
      <point x="297" y="354" type="curve" smooth="yes"/>
      <point x="363" y="354"/>
      <point x="405" y="341"/>
      <point x="428" y="331" type="curve" smooth="yes"/>
      <point x="461" y="314"/>
      <point x="502" y="276"/>
      <point x="502" y="207" type="curve" smooth="yes"/>
      <point x="502" y="125"/>
      <point x="421" y="63"/>
    </contour>
    <contour>
      <point x="286" y="412" type="curve" smooth="yes"/>
      <point x="268" y="412"/>
      <point x="235" y="414"/>
      <point x="235" y="445" type="curve" smooth="yes"/>
      <point x="235" y="604" type="line" smooth="yes"/>
      <point x="235" y="633"/>
      <point x="247" y="646"/>
      <point x="308" y="646" type="curve" smooth="yes"/>
      <point x="444" y="646"/>
      <point x="469" y="583"/>
      <point x="469" y="525" type="curve" smooth="yes"/>
      <point x="469" y="472"/>
      <point x="436" y="445"/>
      <point x="417" y="435" type="curve" smooth="yes"/>
      <point x="374" y="417"/>
      <point x="327" y="412"/>
    </contour>
  </outline>
</glyph>
<glyph name="C" format="1">
  <advance width="763"/>
  <unicode hex="0043"/>
  <outline>
    <contour>
      <point x="448" y="-15" type="curve" smooth="yes"/>
      <point x="515" y="-15"/>
      <point x="594" y="-6"/>
      <point x="645" y="14" type="curve" smooth="yes"/>
      <point x="666" y="23"/>
      <point x="668" y="23"/>
      <point x="678" y="46" type="curve" smooth="yes"/>
      <point x="693" y="79"/>
      <point x="704" y="143"/>
      <point x="705" y="162" type="curve" smooth="yes"/>
      <point x="708" y="192"/>
      <point x="666" y="201"/>
      <point x="649" y="168" type="curve" smooth="yes"/>
      <point x="612" y="97"/>
      <point x="557" y="51"/>
      <point x="462" y="51" type="curve" smooth="yes"/>
      <point x="275" y="51"/>
      <point x="173" y="209"/>
      <point x="173" y="371" type="curve" smooth="yes"/>
      <point x="173" y="512"/>
      <point x="291" y="645"/>
      <point x="454" y="645" type="curve" smooth="yes"/>
      <point x="514" y="645"/>
      <point x="563" y="636"/>
      <point x="595" y="616" type="curve" smooth="yes"/>
      <point x="629" y="596"/>
      <point x="642" y="566"/>
      <point x="657" y="522" type="curve" smooth="yes"/>
      <point x="667" y="491"/>
      <point x="706" y="502"/>
      <point x="704" y="524" type="curve" smooth="yes"/>
      <point x="700" y="576"/>
      <point x="692" y="622"/>
      <point x="689" y="653" type="curve" smooth="yes"/>
      <point x="687" y="671"/>
      <point x="680" y="681"/>
      <point x="659" y="687" type="curve" smooth="yes"/>
      <point x="592" y="706"/>
      <point x="554" y="713"/>
      <point x="474" y="713" type="curve" smooth="yes"/>
      <point x="247" y="713"/>
      <point x="48" y="559"/>
      <point x="48" y="348" type="curve" smooth="yes"/>
      <point x="48" y="128"/>
      <point x="240" y="-15"/>
    </contour>
  </outline>
</glyph>
<glyph name="D" format="1">
  <advance width="836"/>
  <unicode hex="0044"/>
  <outline>
    <contour>
      <point x="412" y="-7" type="curve" smooth="yes"/>
      <point x="625" y="-7"/>
      <point x="799" y="162"/>
      <point x="799" y="368" type="curve" smooth="yes"/>
      <point x="799" y="556"/>
      <point x="679" y="709"/>
      <point x="377" y="709" type="curve" smooth="yes"/>
      <point x="347" y="709"/>
      <point x="234" y="701"/>
      <point x="186" y="701" type="curve" smooth="yes"/>
      <point x="133" y="701"/>
      <point x="119" y="703"/>
      <point x="63" y="703" type="curve" smooth="yes"/>
      <point x="44" y="703"/>
      <point x="30" y="697"/>
      <point x="30" y="683" type="curve" smooth="yes"/>
      <point x="30" y="666"/>
      <point x="40" y="661"/>
      <point x="64" y="655" type="curve" smooth="yes"/>
      <point x="116" y="644"/>
      <point x="132" y="625"/>
      <point x="132" y="573" type="curve" smooth="yes"/>
      <point x="132" y="140" type="line" smooth="yes"/>
      <point x="132" y="79"/>
      <point x="115" y="56"/>
      <point x="64" y="45" type="curve" smooth="yes"/>
      <point x="40" y="38"/>
      <point x="30" y="36"/>
      <point x="30" y="17" type="curve" smooth="yes"/>
      <point x="30" y="-1"/>
      <point x="44" y="-5"/>
      <point x="63" y="-5" type="curve" smooth="yes"/>
      <point x="122" y="-5"/>
      <point x="135" y="0"/>
      <point x="180" y="0" type="curve" smooth="yes"/>
      <point x="268" y="0"/>
      <point x="389" y="-7"/>
    </contour>
    <contour>
      <point x="397" y="63" type="curve" smooth="yes"/>
      <point x="313" y="63"/>
      <point x="237" y="71"/>
      <point x="237" y="143" type="curve" smooth="yes"/>
      <point x="237" y="559" type="line" smooth="yes"/>
      <point x="237" y="644"/>
      <point x="286" y="646"/>
      <point x="382" y="646" type="curve" smooth="yes"/>
      <point x="530" y="646"/>
      <point x="679" y="539"/>
      <point x="679" y="351" type="curve" smooth="yes"/>
      <point x="679" y="182"/>
      <point x="563" y="63"/>
    </contour>
  </outline>
</glyph>
<glyph name="E" format="1">
  <advance width="613"/>
  <unicode hex="0045"/>
  <outline>
    <contour>
      <point x="70" y="-5" type="curve" smooth="yes"/>
      <point x="130" y="-5"/>
      <point x="145" y="1"/>
      <point x="197" y="1" type="curve" smooth="yes"/>
      <point x="306" y="1"/>
      <point x="401" y="-5"/>
      <point x="541" y="-5" type="curve" smooth="yes"/>
      <point x="549" y="-5"/>
      <point x="551" y="3"/>
      <point x="556" y="12" type="curve" smooth="yes"/>
      <point x="568" y="39"/>
      <point x="587" y="139"/>
      <point x="587" y="157" type="curve" smooth="yes"/>
      <point x="587" y="165"/>
      <point x="580" y="172"/>
      <point x="568" y="173" type="curve" smooth="yes"/>
      <point x="556" y="174"/>
      <point x="544" y="165"/>
      <point x="540" y="157" type="curve" smooth="yes"/>
      <point x="520" y="118"/>
      <point x="507" y="94"/>
      <point x="488" y="80" type="curve" smooth="yes"/>
      <point x="469" y="66"/>
      <point x="444" y="63"/>
      <point x="404" y="63" type="curve" smooth="yes"/>
      <point x="319" y="63" type="line" smooth="yes"/>
      <point x="274" y="63"/>
      <point x="253" y="79"/>
      <point x="253" y="130" type="curve" smooth="yes"/>
      <point x="253" y="305" type="line" smooth="yes"/>
      <point x="253" y="328"/>
      <point x="264" y="331"/>
      <point x="287" y="331" type="curve" smooth="yes"/>
      <point x="374" y="331" type="line" smooth="yes"/>
      <point x="403" y="331"/>
      <point x="410" y="323"/>
      <point x="417" y="295" type="curve" smooth="yes"/>
      <point x="423" y="272"/>
      <point x="439" y="261"/>
      <point x="456" y="261" type="curve" smooth="yes"/>
      <point x="470" y="261"/>
      <point x="473" y="271"/>
      <point x="473" y="280" type="curve" smooth="yes"/>
      <point x="473" y="288"/>
      <point x="471" y="344"/>
      <point x="471" y="364" type="curve" smooth="yes"/>
      <point x="471" y="380"/>
      <point x="474" y="430"/>
      <point x="474" y="439" type="curve" smooth="yes"/>
      <point x="474" y="449"/>
      <point x="463" y="459"/>
      <point x="451" y="459" type="curve" smooth="yes"/>
      <point x="438" y="459"/>
      <point x="427" y="448"/>
      <point x="421" y="433" type="curve" smooth="yes"/>
      <point x="413" y="409"/>
      <point x="405" y="394"/>
      <point x="373" y="394" type="curve" smooth="yes"/>
      <point x="271" y="394" type="line" smooth="yes"/>
      <point x="261" y="394"/>
      <point x="253" y="404"/>
      <point x="253" y="416" type="curve" smooth="yes"/>
      <point x="253" y="604" type="line" smooth="yes"/>
      <point x="253" y="624"/>
      <point x="278" y="637"/>
      <point x="289" y="637" type="curve" smooth="yes"/>
      <point x="419" y="637" type="line" smooth="yes"/>
      <point x="445" y="637"/>
      <point x="468" y="631"/>
      <point x="487" y="610" type="curve" smooth="yes"/>
      <point x="496" y="600"/>
      <point x="503" y="579"/>
      <point x="507" y="562" type="curve" smooth="yes"/>
      <point x="510" y="553"/>
      <point x="517" y="544"/>
      <point x="529" y="544" type="curve" smooth="yes"/>
      <point x="540" y="544"/>
      <point x="552" y="551"/>
      <point x="552" y="563" type="curve" smooth="yes"/>
      <point x="552" y="590"/>
      <point x="544" y="656"/>
      <point x="537" y="694" type="curve"/>
      <point x="536" y="701"/>
      <point x="525" y="703"/>
      <point x="517" y="703" type="curve" smooth="yes"/>
      <point x="511" y="703"/>
      <point x="472" y="702"/>
      <point x="423" y="701" type="curve" smooth="yes"/>
      <point x="377" y="701"/>
      <point x="321" y="700"/>
      <point x="272" y="700" type="curve" smooth="yes"/>
      <point x="195" y="700"/>
      <point x="160" y="703"/>
      <point x="78" y="703" type="curve" smooth="yes"/>
      <point x="59" y="703"/>
      <point x="46" y="696"/>
      <point x="46" y="682" type="curve" smooth="yes"/>
      <point x="46" y="667"/>
      <point x="55" y="655"/>
      <point x="79" y="650" type="curve" smooth="yes"/>
      <point x="130" y="639"/>
      <point x="148" y="625"/>
      <point x="148" y="577" type="curve" smooth="yes"/>
      <point x="148" y="120" type="line" smooth="yes"/>
      <point x="148" y="72"/>
      <point x="123" y="56"/>
      <point x="72" y="45" type="curve" smooth="yes"/>
      <point x="48" y="39"/>
      <point x="39" y="29"/>
      <point x="39" y="14" type="curve" smooth="yes"/>
      <point x="39" y="0"/>
      <point x="52" y="-5"/>
    </contour>
  </outline>
</glyph>
<glyph name="G" format="1">
  <advance width="801"/>
  <unicode hex="0047"/>
  <outline>
    <contour>
      <point x="433" y="-14" type="curve" smooth="yes"/>
      <point x="580" y="-14"/>
      <point x="677" y="55"/>
      <point x="698" y="58" type="curve" smooth="yes"/>
      <point x="713" y="60"/>
      <point x="713" y="72"/>
      <point x="713" y="77" type="curve" smooth="yes"/>
      <point x="713" y="82"/>
      <point x="703" y="87"/>
      <point x="699" y="94" type="curve"/>
      <point x="696" y="100"/>
      <point x="693" y="103"/>
      <point x="693" y="110" type="curve" smooth="yes"/>
      <point x="693" y="143" type="line" smooth="yes"/>
      <point x="693" y="172"/>
      <point x="694" y="198"/>
      <point x="702" y="226" type="curve" smooth="yes"/>
      <point x="711" y="245"/>
      <point x="723" y="256"/>
      <point x="742" y="263" type="curve"/>
      <point x="747" y="264"/>
      <point x="764" y="276"/>
      <point x="764" y="289" type="curve" smooth="yes"/>
      <point x="764" y="308"/>
      <point x="747" y="313"/>
      <point x="742" y="313" type="curve" smooth="yes"/>
      <point x="702" y="313"/>
      <point x="682" y="308"/>
      <point x="643" y="308" type="curve" smooth="yes"/>
      <point x="583" y="308"/>
      <point x="559" y="313"/>
      <point x="505" y="313" type="curve" smooth="yes"/>
      <point x="492" y="313"/>
      <point x="476" y="303"/>
      <point x="476" y="284" type="curve" smooth="yes"/>
      <point x="476" y="263"/>
      <point x="494" y="256"/>
      <point x="504" y="256" type="curve" smooth="yes"/>
      <point x="523" y="256"/>
      <point x="579" y="247"/>
      <point x="597" y="231" type="curve" smooth="yes"/>
      <point x="601" y="228"/>
      <point x="602" y="219"/>
      <point x="602" y="208" type="curve" smooth="yes"/>
      <point x="602" y="188"/>
      <point x="601" y="171"/>
      <point x="601" y="157" type="curve" smooth="yes"/>
      <point x="601" y="126"/>
      <point x="587" y="101"/>
      <point x="572" y="87" type="curve" smooth="yes"/>
      <point x="560" y="77"/>
      <point x="525" y="54"/>
      <point x="446" y="54" type="curve" smooth="yes"/>
      <point x="306" y="54"/>
      <point x="171" y="163"/>
      <point x="171" y="349" type="curve" smooth="yes"/>
      <point x="171" y="505"/>
      <point x="284" y="644"/>
      <point x="454" y="644" type="curve" smooth="yes"/>
      <point x="556" y="644"/>
      <point x="607" y="607"/>
      <point x="624" y="588" type="curve" smooth="yes"/>
      <point x="639" y="569"/>
      <point x="645" y="555"/>
      <point x="653" y="533" type="curve"/>
      <point x="656" y="520"/>
      <point x="662" y="505"/>
      <point x="676" y="505" type="curve" smooth="yes"/>
      <point x="693" y="505"/>
      <point x="700" y="515"/>
      <point x="700" y="525" type="curve" smooth="yes"/>
      <point x="700" y="559"/>
      <point x="695" y="613"/>
      <point x="690" y="665" type="curve" smooth="yes"/>
      <point x="689" y="672"/>
      <point x="687" y="674"/>
      <point x="680" y="678" type="curve" smooth="yes"/>
      <point x="651" y="692"/>
      <point x="519" y="713"/>
      <point x="464" y="713" type="curve" smooth="yes"/>
      <point x="237" y="713"/>
      <point x="47" y="551"/>
      <point x="47" y="335" type="curve" smooth="yes"/>
      <point x="47" y="137"/>
      <point x="225" y="-14"/>
    </contour>
  </outline>
</glyph>
<glyph name="I" format="1">
  <advance width="370"/>
  <unicode hex="0049"/>
  <outline>
    <contour>
      <point x="192" y="4" type="curve" smooth="yes"/>
      <point x="243" y="4"/>
      <point x="262" y="-5"/>
      <point x="322" y="-5" type="curve" smooth="yes"/>
      <point x="339" y="-5"/>
      <point x="352" y="0"/>
      <point x="352" y="14" type="curve" smooth="yes"/>
      <point x="352" y="29"/>
      <point x="341" y="38"/>
      <point x="318" y="45" type="curve" smooth="yes"/>
      <point x="267" y="55"/>
      <point x="238" y="77"/>
      <point x="238" y="131" type="curve" smooth="yes"/>
      <point x="238" y="561" type="line" smooth="yes"/>
      <point x="238" y="619"/>
      <point x="259" y="639"/>
      <point x="310" y="650" type="curve" smooth="yes"/>
      <point x="334" y="657"/>
      <point x="344" y="669"/>
      <point x="344" y="684" type="curve" smooth="yes"/>
      <point x="344" y="698"/>
      <point x="332" y="703"/>
      <point x="315" y="703" type="curve" smooth="yes"/>
      <point x="254" y="703"/>
      <point x="240" y="698"/>
      <point x="192" y="698" type="curve" smooth="yes"/>
      <point x="140" y="698"/>
      <point x="121" y="703"/>
      <point x="60" y="703" type="curve" smooth="yes"/>
      <point x="43" y="703"/>
      <point x="30" y="698"/>
      <point x="30" y="684" type="curve" smooth="yes"/>
      <point x="30" y="669"/>
      <point x="41" y="657"/>
      <point x="64" y="650" type="curve" smooth="yes"/>
      <point x="115" y="639"/>
      <point x="133" y="619"/>
      <point x="133" y="561" type="curve" smooth="yes"/>
      <point x="133" y="131" type="line" smooth="yes"/>
      <point x="133" y="77"/>
      <point x="105" y="55"/>
      <point x="54" y="45" type="curve" smooth="yes"/>
      <point x="30" y="38"/>
      <point x="20" y="29"/>
      <point x="20" y="14" type="curve" smooth="yes"/>
      <point x="20" y="0"/>
      <point x="32" y="-5"/>
      <point x="49" y="-5" type="curve" smooth="yes"/>
      <point x="110" y="-5"/>
      <point x="136" y="4"/>
    </contour>
  </outline>
</glyph>
<glyph name="J" format="1">
  <advance width="366"/>
  <unicode hex="004A"/>
  <outline>
    <contour>
      <point x="39" y="-200" type="curve" smooth="yes"/>
      <point x="95" y="-200"/>
      <point x="134" y="-180"/>
      <point x="166" y="-148" type="curve" smooth="yes"/>
      <point x="208" y="-104"/>
      <point x="238" y="-33"/>
      <point x="238" y="50" type="curve" smooth="yes"/>
      <point x="238" y="561" type="line" smooth="yes"/>
      <point x="238" y="619"/>
      <point x="257" y="639"/>
      <point x="308" y="650" type="curve" smooth="yes"/>
      <point x="331" y="657"/>
      <point x="341" y="669"/>
      <point x="341" y="684" type="curve" smooth="yes"/>
      <point x="341" y="698"/>
      <point x="329" y="703"/>
      <point x="312" y="703" type="curve" smooth="yes"/>
      <point x="251" y="703"/>
      <point x="239" y="698"/>
      <point x="192" y="698" type="curve" smooth="yes"/>
      <point x="140" y="698"/>
      <point x="121" y="703"/>
      <point x="60" y="703" type="curve" smooth="yes"/>
      <point x="43" y="703"/>
      <point x="31" y="698"/>
      <point x="31" y="684" type="curve" smooth="yes"/>
      <point x="31" y="669"/>
      <point x="41" y="657"/>
      <point x="64" y="650" type="curve" smooth="yes"/>
      <point x="115" y="639"/>
      <point x="133" y="619"/>
      <point x="133" y="561" type="curve" smooth="yes"/>
      <point x="133" y="2" type="line" smooth="yes"/>
      <point x="133" y="-84"/>
      <point x="110" y="-138"/>
      <point x="60" y="-138" type="curve" smooth="yes"/>
      <point x="39" y="-138"/>
      <point x="26" y="-131"/>
      <point x="14" y="-121" type="curve" smooth="yes"/>
      <point x="1" y="-111"/>
      <point x="-11" y="-104"/>
      <point x="-32" y="-104" type="curve" smooth="yes"/>
      <point x="-55" y="-104"/>
      <point x="-77" y="-128"/>
      <point x="-77" y="-151" type="curve" smooth="yes"/>
      <point x="-77" y="-182"/>
      <point x="-39" y="-200"/>
    </contour>
  </outline>
</glyph>
<glyph name="L" format="1">
  <advance width="642"/>
  <unicode hex="004C"/>
  <outline>
    <contour>
      <point x="69" y="-5" type="curve"/>
      <point x="74" y="-5"/>
      <point x="158" y="0"/>
      <point x="215" y="0" type="curve" smooth="yes"/>
      <point x="324" y="0"/>
      <point x="442" y="-5"/>
      <point x="588" y="-5" type="curve" smooth="yes"/>
      <point x="599" y="-5"/>
      <point x="602" y="3"/>
      <point x="603" y="12" type="curve" smooth="yes"/>
      <point x="609" y="63"/>
      <point x="617" y="105"/>
      <point x="630" y="160" type="curve"/>
      <point x="632" y="166"/>
      <point x="633" y="170"/>
      <point x="633" y="175" type="curve" smooth="yes"/>
      <point x="633" y="183"/>
      <point x="625" y="193"/>
      <point x="611" y="193" type="curve" smooth="yes"/>
      <point x="596" y="193"/>
      <point x="583" y="176"/>
      <point x="572" y="153" type="curve" smooth="yes"/>
      <point x="559" y="125"/>
      <point x="552" y="113"/>
      <point x="529" y="89" type="curve" smooth="yes"/>
      <point x="517" y="77"/>
      <point x="491" y="63"/>
      <point x="459" y="63" type="curve" smooth="yes"/>
      <point x="326" y="63" type="line" smooth="yes"/>
      <point x="260" y="63"/>
      <point x="249" y="83"/>
      <point x="249" y="125" type="curve" smooth="yes"/>
      <point x="249" y="594" type="line" smooth="yes"/>
      <point x="249" y="634"/>
      <point x="288" y="641"/>
      <point x="332" y="651" type="curve" smooth="yes"/>
      <point x="362" y="657"/>
      <point x="372" y="669"/>
      <point x="372" y="684" type="curve" smooth="yes"/>
      <point x="372" y="698"/>
      <point x="359" y="703"/>
      <point x="341" y="703" type="curve" smooth="yes"/>
      <point x="281" y="703"/>
      <point x="256" y="700"/>
      <point x="203" y="700" type="curve" smooth="yes"/>
      <point x="154" y="700"/>
      <point x="139" y="703"/>
      <point x="79" y="703" type="curve" smooth="yes"/>
      <point x="61" y="703"/>
      <point x="47" y="698"/>
      <point x="47" y="684" type="curve" smooth="yes"/>
      <point x="47" y="669"/>
      <point x="57" y="655"/>
      <point x="81" y="650" type="curve" smooth="yes"/>
      <point x="132" y="640"/>
      <point x="144" y="636"/>
      <point x="144" y="588" type="curve" smooth="yes"/>
      <point x="144" y="117" type="line" smooth="yes"/>
      <point x="144" y="73"/>
      <point x="115" y="55"/>
      <point x="70" y="45" type="curve"/>
      <point x="56" y="43"/>
      <point x="39" y="36"/>
      <point x="39" y="15" type="curve" smooth="yes"/>
      <point x="39" y="3"/>
      <point x="50" y="-5"/>
    </contour>
  </outline>
</glyph>
<glyph name="M" format="1">
  <advance width="988"/>
  <unicode hex="004D"/>
  <outline>
    <contour>
      <point x="50" y="-5" type="curve" smooth="yes"/>
      <point x="106" y="-5"/>
      <point x="107" y="0"/>
      <point x="144" y="0" type="curve" smooth="yes"/>
      <point x="181" y="0"/>
      <point x="184" y="-5"/>
      <point x="239" y="-5" type="curve" smooth="yes"/>
      <point x="256" y="-5"/>
      <point x="269" y="0"/>
      <point x="269" y="15" type="curve" smooth="yes"/>
      <point x="269" y="31"/>
      <point x="258" y="40"/>
      <point x="235" y="47" type="curve" smooth="yes"/>
      <point x="195" y="58"/>
      <point x="178" y="95"/>
      <point x="178" y="141" type="curve" smooth="yes"/>
      <point x="179" y="245"/>
      <point x="191" y="352"/>
      <point x="212" y="496" type="curve" smooth="yes"/>
      <point x="213" y="503"/>
      <point x="222" y="503"/>
      <point x="225" y="496" type="curve" smooth="yes"/>
      <point x="302" y="302"/>
      <point x="355" y="169"/>
      <point x="408" y="-1" type="curve" smooth="yes"/>
      <point x="413" y="-15"/>
      <point x="452" y="-16"/>
      <point x="458" y="-2" type="curve" smooth="yes"/>
      <point x="698" y="506" type="line" smooth="yes"/>
      <point x="705" y="519"/>
      <point x="713" y="520"/>
      <point x="715" y="506" type="curve"/>
      <point x="721" y="360"/>
      <point x="727" y="271"/>
      <point x="727" y="116" type="curve" smooth="yes"/>
      <point x="727" y="72"/>
      <point x="715" y="55"/>
      <point x="675" y="48" type="curve" smooth="yes"/>
      <point x="650" y="44"/>
      <point x="641" y="32"/>
      <point x="641" y="15" type="curve" smooth="yes"/>
      <point x="641" y="1"/>
      <point x="654" y="-5"/>
      <point x="673" y="-5" type="curve" smooth="yes"/>
      <point x="733" y="-5"/>
      <point x="744" y="0"/>
      <point x="789" y="0" type="curve" smooth="yes"/>
      <point x="840" y="0"/>
      <point x="859" y="-5"/>
      <point x="918" y="-5" type="curve" smooth="yes"/>
      <point x="937" y="-5"/>
      <point x="950" y="1"/>
      <point x="950" y="15" type="curve" smooth="yes"/>
      <point x="950" y="32"/>
      <point x="941" y="44"/>
      <point x="917" y="48" type="curve" smooth="yes"/>
      <point x="865" y="57"/>
      <point x="841" y="77"/>
      <point x="839" y="116" type="curve" smooth="yes"/>
      <point x="832" y="275"/>
      <point x="817" y="419"/>
      <point x="817" y="573" type="curve" smooth="yes"/>
      <point x="817" y="595"/>
      <point x="827" y="620"/>
      <point x="842" y="627" type="curve" smooth="yes"/>
      <point x="861" y="636"/>
      <point x="885" y="647"/>
      <point x="903" y="658" type="curve" smooth="yes"/>
      <point x="923" y="670"/>
      <point x="929" y="677"/>
      <point x="929" y="691" type="curve" smooth="yes"/>
      <point x="929" y="705"/>
      <point x="910" y="707"/>
      <point x="903" y="707" type="curve" smooth="yes"/>
      <point x="873" y="707"/>
      <point x="808" y="699"/>
      <point x="757" y="699" type="curve" smooth="yes"/>
      <point x="711" y="699" type="line" smooth="yes"/>
      <point x="705" y="699"/>
      <point x="702" y="694"/>
      <point x="699" y="686" type="curve" smooth="yes"/>
      <point x="694" y="665"/>
      <point x="687" y="632"/>
      <point x="681" y="610" type="curve"/>
      <point x="482" y="169" type="line" smooth="yes"/>
      <point x="476" y="157"/>
      <point x="464" y="160"/>
      <point x="460" y="172" type="curve" smooth="yes"/>
      <point x="303" y="605" type="line" smooth="yes"/>
      <point x="293" y="630"/>
      <point x="287" y="658"/>
      <point x="280" y="682" type="curve" smooth="yes"/>
      <point x="277" y="692"/>
      <point x="268" y="698"/>
      <point x="258" y="698" type="curve" smooth="yes"/>
      <point x="227" y="698"/>
      <point x="114" y="706"/>
      <point x="84" y="706" type="curve" smooth="yes"/>
      <point x="61" y="706"/>
      <point x="44" y="701"/>
      <point x="44" y="685" type="curve" smooth="yes"/>
      <point x="44" y="669"/>
      <point x="54" y="661"/>
      <point x="67" y="658" type="curve" smooth="yes"/>
      <point x="90" y="651"/>
      <point x="109" y="645"/>
      <point x="125" y="630" type="curve" smooth="yes"/>
      <point x="138" y="617"/>
      <point x="144" y="601"/>
      <point x="144" y="580" type="curve" smooth="yes"/>
      <point x="145" y="569"/>
      <point x="145" y="550"/>
      <point x="145" y="532" type="curve" smooth="yes"/>
      <point x="145" y="449"/>
      <point x="130" y="316"/>
      <point x="108" y="136" type="curve" smooth="yes"/>
      <point x="101" y="82"/>
      <point x="83" y="53"/>
      <point x="55" y="46" type="curve" smooth="yes"/>
      <point x="31" y="39"/>
      <point x="21" y="30"/>
      <point x="21" y="15" type="curve" smooth="yes"/>
      <point x="21" y="0"/>
      <point x="33" y="-5"/>
    </contour>
  </outline>
</glyph>
<glyph name="N" format="1">
  <advance width="854"/>
  <unicode hex="004E"/>
  <outline>
    <contour>
      <point x="713" y="-17" type="curve" smooth="yes"/>
      <point x="731" y="-17"/>
      <point x="748" y="-13"/>
      <point x="748" y="8" type="curve" smooth="yes"/>
      <point x="748" y="21"/>
      <point x="743" y="57"/>
      <point x="743" y="110" type="curve" smooth="yes"/>
      <point x="743" y="269"/>
      <point x="747" y="515"/>
      <point x="752" y="566" type="curve" smooth="yes"/>
      <point x="757" y="616"/>
      <point x="774" y="642"/>
      <point x="813" y="650" type="curve" smooth="yes"/>
      <point x="834" y="655"/>
      <point x="843" y="666"/>
      <point x="843" y="681" type="curve" smooth="yes"/>
      <point x="843" y="696"/>
      <point x="832" y="701"/>
      <point x="817" y="701" type="curve" smooth="yes"/>
      <point x="757" y="701"/>
      <point x="750" y="696"/>
      <point x="710" y="696" type="curve" smooth="yes"/>
      <point x="675" y="696"/>
      <point x="667" y="700"/>
      <point x="620" y="700" type="curve" smooth="yes"/>
      <point x="605" y="700"/>
      <point x="591" y="695"/>
      <point x="591" y="680" type="curve" smooth="yes"/>
      <point x="591" y="664"/>
      <point x="603" y="655"/>
      <point x="625" y="649" type="curve" smooth="yes"/>
      <point x="665" y="639"/>
      <point x="684" y="603"/>
      <point x="684" y="564" type="curve"/>
      <point x="684" y="418"/>
      <point x="681" y="259"/>
      <point x="680" y="185" type="curve"/>
      <point x="679" y="170"/>
      <point x="675" y="164"/>
      <point x="670" y="164" type="curve" smooth="yes"/>
      <point x="662" y="164"/>
      <point x="649" y="178"/>
      <point x="644" y="184" type="curve" smooth="yes"/>
      <point x="622" y="209"/>
      <point x="269" y="654"/>
      <point x="249" y="684" type="curve"/>
      <point x="241" y="695"/>
      <point x="234" y="703"/>
      <point x="219" y="703" type="curve" smooth="yes"/>
      <point x="131" y="703"/>
      <point x="130" y="706"/>
      <point x="36" y="708" type="curve" smooth="yes"/>
      <point x="29" y="708"/>
      <point x="13" y="705"/>
      <point x="13" y="688" type="curve" smooth="yes"/>
      <point x="13" y="671"/>
      <point x="32" y="656"/>
      <point x="55" y="648" type="curve" smooth="yes"/>
      <point x="97" y="634"/>
      <point x="133" y="611"/>
      <point x="133" y="544" type="curve" smooth="yes"/>
      <point x="133" y="377"/>
      <point x="126" y="213"/>
      <point x="119" y="138" type="curve" smooth="yes"/>
      <point x="113" y="85"/>
      <point x="100" y="55"/>
      <point x="64" y="46" type="curve" smooth="yes"/>
      <point x="42" y="40"/>
      <point x="34" y="30"/>
      <point x="34" y="15" type="curve" smooth="yes"/>
      <point x="34" y="0"/>
      <point x="44" y="-5"/>
      <point x="60" y="-5" type="curve" smooth="yes"/>
      <point x="118" y="-5"/>
      <point x="119" y="0"/>
      <point x="155" y="0" type="curve" smooth="yes"/>
      <point x="193" y="0"/>
      <point x="196" y="-5"/>
      <point x="255" y="-5" type="curve" smooth="yes"/>
      <point x="271" y="-5"/>
      <point x="282" y="0"/>
      <point x="282" y="15" type="curve" smooth="yes"/>
      <point x="282" y="31"/>
      <point x="273" y="40"/>
      <point x="251" y="45" type="curve" smooth="yes"/>
      <point x="203" y="58"/>
      <point x="191" y="96"/>
      <point x="191" y="138" type="curve" smooth="yes"/>
      <point x="191" y="262"/>
      <point x="196" y="415"/>
      <point x="196" y="516" type="curve" smooth="yes"/>
      <point x="196" y="524"/>
      <point x="198" y="537"/>
      <point x="205" y="537" type="curve" smooth="yes"/>
      <point x="211" y="537"/>
      <point x="217" y="532"/>
      <point x="227" y="520" type="curve" smooth="yes"/>
      <point x="252" y="489"/>
      <point x="587" y="74"/>
      <point x="606" y="46" type="curve" smooth="yes"/>
      <point x="639" y="2"/>
      <point x="690" y="-17"/>
    </contour>
  </outline>
</glyph>
<glyph name="O" format="1">
  <advance width="845"/>
  <unicode hex="004F"/>
  <outline>
    <contour>
      <point x="418" y="-14" type="curve" smooth="yes"/>
      <point x="666" y="-14"/>
      <point x="798" y="166"/>
      <point x="798" y="361" type="curve" smooth="yes"/>
      <point x="798" y="574"/>
      <point x="624" y="714"/>
      <point x="428" y="714" type="curve" smooth="yes"/>
      <point x="179" y="714"/>
      <point x="47" y="534"/>
      <point x="47" y="339" type="curve" smooth="yes"/>
      <point x="47" y="126"/>
      <point x="220" y="-14"/>
    </contour>
    <contour>
      <point x="434" y="56" type="curve" smooth="yes"/>
      <point x="259" y="56"/>
      <point x="168" y="206"/>
      <point x="168" y="389" type="curve" smooth="yes"/>
      <point x="168" y="541"/>
      <point x="251" y="642"/>
      <point x="411" y="642" type="curve" smooth="yes"/>
      <point x="586" y="642"/>
      <point x="678" y="493"/>
      <point x="678" y="312" type="curve" smooth="yes"/>
      <point x="678" y="159"/>
      <point x="595" y="56"/>
    </contour>
  </outline>
</glyph>
<glyph name="Q" format="1">
  <advance width="845"/>
  <unicode hex="0051"/>
  <outline>
    <contour>
      <point x="827" y="-250" type="curve" smooth="yes"/>
      <point x="869" y="-250"/>
      <point x="916" y="-239"/>
      <point x="958" y="-214" type="curve" smooth="yes"/>
      <point x="975" y="-205"/>
      <point x="978" y="-196"/>
      <point x="978" y="-184" type="curve" smooth="yes"/>
      <point x="978" y="-178"/>
      <point x="968" y="-171"/>
      <point x="961" y="-171" type="curve" smooth="yes"/>
      <point x="954" y="-171"/>
      <point x="947" y="-173"/>
      <point x="940" y="-175" type="curve"/>
      <point x="921" y="-183"/>
      <point x="894" y="-187"/>
      <point x="864" y="-187" type="curve" smooth="yes"/>
      <point x="795" y="-186"/>
      <point x="728" y="-165"/>
      <point x="674" y="-128" type="curve" smooth="yes"/>
      <point x="620" y="-91"/>
      <point x="579" y="-57"/>
      <point x="537" y="-15" type="curve"/>
      <point x="534" y="-12"/>
      <point x="533" y="-9"/>
      <point x="533" y="-6" type="curve" smooth="yes"/>
      <point x="533" y="-4"/>
      <point x="534" y="-1"/>
      <point x="542" y="2" type="curve" smooth="yes"/>
      <point x="709" y="48"/>
      <point x="798" y="200"/>
      <point x="798" y="361" type="curve" smooth="yes"/>
      <point x="798" y="574"/>
      <point x="624" y="714"/>
      <point x="428" y="714" type="curve" smooth="yes"/>
      <point x="179" y="714"/>
      <point x="47" y="534"/>
      <point x="47" y="339" type="curve" smooth="yes"/>
      <point x="47" y="181"/>
      <point x="144" y="63"/>
      <point x="274" y="12" type="curve" smooth="yes"/>
      <point x="316" y="-3"/>
      <point x="362" y="-18"/>
      <point x="414" y="-56" type="curve" smooth="yes"/>
      <point x="485" y="-110"/>
      <point x="528" y="-139"/>
      <point x="584" y="-175" type="curve" smooth="yes"/>
      <point x="658" y="-221"/>
      <point x="722" y="-250"/>
    </contour>
    <contour>
      <point x="434" y="56" type="curve" smooth="yes"/>
      <point x="259" y="56"/>
      <point x="168" y="206"/>
      <point x="168" y="389" type="curve" smooth="yes"/>
      <point x="168" y="541"/>
      <point x="251" y="642"/>
      <point x="411" y="642" type="curve" smooth="yes"/>
      <point x="586" y="642"/>
      <point x="678" y="493"/>
      <point x="678" y="312" type="curve" smooth="yes"/>
      <point x="678" y="159"/>
      <point x="595" y="56"/>
    </contour>
  </outline>
</glyph>
<glyph name="R" format="1">
  <advance width="792"/>
  <unicode hex="0052"/>
  <outline>
    <contour>
      <point x="706" y="-21" type="curve" smooth="yes"/>
      <point x="734" y="-21"/>
      <point x="798" y="-15"/>
      <point x="798" y="29" type="curve" smooth="yes"/>
      <point x="798" y="41"/>
      <point x="793" y="44"/>
      <point x="782" y="44" type="curve" smooth="yes"/>
      <point x="733" y="44"/>
      <point x="699" y="46"/>
      <point x="662" y="78" type="curve" smooth="yes"/>
      <point x="563" y="164"/>
      <point x="515" y="240"/>
      <point x="450" y="336" type="curve" smooth="yes"/>
      <point x="446" y="342"/>
      <point x="445" y="348"/>
      <point x="450" y="350" type="curve"/>
      <point x="507" y="380"/>
      <point x="574" y="433"/>
      <point x="574" y="530" type="curve" smooth="yes"/>
      <point x="574" y="649"/>
      <point x="481" y="707"/>
      <point x="304" y="707" type="curve" smooth="yes"/>
      <point x="241" y="707"/>
      <point x="220" y="702"/>
      <point x="178" y="702" type="curve" smooth="yes"/>
      <point x="135" y="702"/>
      <point x="125" y="705"/>
      <point x="69" y="705" type="curve" smooth="yes"/>
      <point x="51" y="705"/>
      <point x="39" y="697"/>
      <point x="39" y="684" type="curve" smooth="yes"/>
      <point x="39" y="668"/>
      <point x="48" y="662"/>
      <point x="71" y="655" type="curve" smooth="yes"/>
      <point x="123" y="642"/>
      <point x="134" y="627"/>
      <point x="134" y="566" type="curve" smooth="yes"/>
      <point x="134" y="131" type="line" smooth="yes"/>
      <point x="134" y="75"/>
      <point x="120" y="55"/>
      <point x="68" y="45" type="curve" smooth="yes"/>
      <point x="45" y="38"/>
      <point x="35" y="32"/>
      <point x="35" y="17" type="curve" smooth="yes"/>
      <point x="35" y="3"/>
      <point x="49" y="-5"/>
      <point x="67" y="-5" type="curve" smooth="yes"/>
      <point x="126" y="-5"/>
      <point x="145" y="4"/>
      <point x="195" y="4" type="curve" smooth="yes"/>
      <point x="241" y="4"/>
      <point x="259" y="-5"/>
      <point x="317" y="-5" type="curve" smooth="yes"/>
      <point x="336" y="-5"/>
      <point x="349" y="3"/>
      <point x="349" y="17" type="curve" smooth="yes"/>
      <point x="349" y="32"/>
      <point x="339" y="38"/>
      <point x="316" y="45" type="curve" smooth="yes"/>
      <point x="267" y="54"/>
      <point x="239" y="91"/>
      <point x="239" y="139" type="curve" smooth="yes"/>
      <point x="239" y="302" type="line" smooth="yes"/>
      <point x="239" y="314"/>
      <point x="243" y="322"/>
      <point x="255" y="321" type="curve" smooth="yes"/>
      <point x="281" y="319"/>
      <point x="314" y="314"/>
      <point x="345" y="301" type="curve" smooth="yes"/>
      <point x="366" y="291"/>
      <point x="378" y="281"/>
      <point x="391" y="260" type="curve" smooth="yes"/>
      <point x="461" y="145"/>
      <point x="495" y="102"/>
      <point x="548" y="38" type="curve" smooth="yes"/>
      <point x="586" y="-9"/>
      <point x="641" y="-21"/>
    </contour>
    <contour>
      <point x="297" y="380" type="curve" smooth="yes"/>
      <point x="260" y="380"/>
      <point x="239" y="381"/>
      <point x="239" y="407" type="curve" smooth="yes"/>
      <point x="239" y="471"/>
      <point x="240" y="542"/>
      <point x="241" y="568" type="curve" smooth="yes"/>
      <point x="244" y="623"/>
      <point x="253" y="643"/>
      <point x="300" y="643" type="curve" smooth="yes"/>
      <point x="438" y="643"/>
      <point x="461" y="583"/>
      <point x="461" y="510" type="curve" smooth="yes"/>
      <point x="461" y="441"/>
      <point x="398" y="380"/>
    </contour>
  </outline>
</glyph>
<glyph name="S" format="1">
  <advance width="507"/>
  <unicode hex="0053"/>
  <outline>
    <contour>
      <point x="224" y="-16" type="curve" smooth="yes"/>
      <point x="368" y="-16"/>
      <point x="464" y="67"/>
      <point x="464" y="199" type="curve" smooth="yes"/>
      <point x="464" y="306"/>
      <point x="388" y="357"/>
      <point x="302" y="404" type="curve" smooth="yes"/>
      <point x="218" y="448"/>
      <point x="161" y="482"/>
      <point x="161" y="539" type="curve" smooth="yes"/>
      <point x="161" y="614"/>
      <point x="213" y="644"/>
      <point x="278" y="644" type="curve" smooth="yes"/>
      <point x="340" y="644"/>
      <point x="380" y="618"/>
      <point x="401" y="554" type="curve" smooth="yes"/>
      <point x="405" y="539"/>
      <point x="419" y="536"/>
      <point x="432" y="536" type="curve" smooth="yes"/>
      <point x="440" y="536"/>
      <point x="456" y="539"/>
      <point x="456" y="554" type="curve" smooth="yes"/>
      <point x="456" y="583"/>
      <point x="444" y="628"/>
      <point x="435" y="663" type="curve" smooth="yes"/>
      <point x="432" y="675"/>
      <point x="423" y="687"/>
      <point x="412" y="691" type="curve" smooth="yes"/>
      <point x="388" y="701"/>
      <point x="350" y="714"/>
      <point x="295" y="714" type="curve" smooth="yes"/>
      <point x="135" y="714"/>
      <point x="63" y="625"/>
      <point x="63" y="516" type="curve" smooth="yes"/>
      <point x="63" y="413"/>
      <point x="154" y="361"/>
      <point x="249" y="310" type="curve" smooth="yes"/>
      <point x="328" y="269"/>
      <point x="366" y="244"/>
      <point x="366" y="167" type="curve" smooth="yes"/>
      <point x="366" y="97"/>
      <point x="316" y="52"/>
      <point x="245" y="52" type="curve" smooth="yes"/>
      <point x="177" y="52"/>
      <point x="118" y="77"/>
      <point x="91" y="162" type="curve" smooth="yes"/>
      <point x="87" y="172"/>
      <point x="79" y="177"/>
      <point x="67" y="177" type="curve" smooth="yes"/>
      <point x="52" y="177"/>
      <point x="40" y="168"/>
      <point x="42" y="158" type="curve"/>
      <point x="44" y="129"/>
      <point x="45" y="81"/>
      <point x="53" y="54" type="curve" smooth="yes"/>
      <point x="55" y="45"/>
      <point x="61" y="38"/>
      <point x="67" y="32" type="curve"/>
      <point x="108" y="0"/>
      <point x="162" y="-16"/>
    </contour>
  </outline>
</glyph>
<glyph name="V" format="1">
  <advance width="714"/>
  <unicode hex="0056"/>
  <outline>
    <contour>
      <point x="379" y="-3" type="curve" smooth="yes"/>
      <point x="395" y="20"/>
      <point x="410" y="57"/>
      <point x="418" y="79" type="curve" smooth="yes"/>
      <point x="595" y="565" type="line" smooth="yes"/>
      <point x="615" y="617"/>
      <point x="646" y="645"/>
      <point x="696" y="656" type="curve" smooth="yes"/>
      <point x="719" y="661"/>
      <point x="728" y="670"/>
      <point x="728" y="683" type="curve" smooth="yes"/>
      <point x="728" y="696"/>
      <point x="716" y="703"/>
      <point x="699" y="703" type="curve" smooth="yes"/>
      <point x="672" y="703"/>
      <point x="622" y="700"/>
      <point x="583" y="700" type="curve" smooth="yes"/>
      <point x="544" y="700"/>
      <point x="508" y="701"/>
      <point x="482" y="701" type="curve" smooth="yes"/>
      <point x="464" y="701"/>
      <point x="452" y="697"/>
      <point x="452" y="684" type="curve" smooth="yes"/>
      <point x="452" y="671"/>
      <point x="461" y="661"/>
      <point x="490" y="657" type="curve" smooth="yes"/>
      <point x="525" y="651"/>
      <point x="546" y="626"/>
      <point x="524" y="563" type="curve" smooth="yes"/>
      <point x="382" y="158" type="line" smooth="yes"/>
      <point x="379" y="149"/>
      <point x="373" y="152"/>
      <point x="371" y="157" type="curve" smooth="yes"/>
      <point x="229" y="573" type="line"/>
      <point x="226" y="582"/>
      <point x="219" y="598"/>
      <point x="219" y="620" type="curve" smooth="yes"/>
      <point x="219" y="640"/>
      <point x="246" y="652"/>
      <point x="277" y="655" type="curve" smooth="yes"/>
      <point x="304" y="658"/>
      <point x="314" y="670"/>
      <point x="314" y="684" type="curve" smooth="yes"/>
      <point x="314" y="695"/>
      <point x="300" y="702"/>
      <point x="281" y="702" type="curve" smooth="yes"/>
      <point x="259" y="702"/>
      <point x="212" y="700"/>
      <point x="168" y="700" type="curve" smooth="yes"/>
      <point x="116" y="700"/>
      <point x="67" y="703"/>
      <point x="32" y="703" type="curve" smooth="yes"/>
      <point x="13" y="703"/>
      <point x="0" y="699"/>
      <point x="0" y="687" type="curve" smooth="yes"/>
      <point x="0" y="674"/>
      <point x="14" y="666"/>
      <point x="40" y="655" type="curve" smooth="yes"/>
      <point x="80" y="641"/>
      <point x="101" y="609"/>
      <point x="113" y="577" type="curve" smooth="yes"/>
      <point x="294" y="56" type="line" smooth="yes"/>
      <point x="301" y="37"/>
      <point x="311" y="11"/>
      <point x="320" y="-4" type="curve" smooth="yes"/>
      <point x="323" y="-10"/>
      <point x="341" y="-12"/>
      <point x="351" y="-12" type="curve" smooth="yes"/>
      <point x="361" y="-12"/>
      <point x="376" y="-9"/>
    </contour>
  </outline>
</glyph>
<glyph name="X" format="1">
  <advance width="766"/>
  <unicode hex="0058"/>
  <outline>
    <contour>
      <point x="25" y="-5" type="curve" smooth="yes"/>
      <point x="59" y="-5"/>
      <point x="110" y="1"/>
      <point x="157" y="1" type="curve" smooth="yes"/>
      <point x="192" y="1"/>
      <point x="227" y="-1"/>
      <point x="245" y="-1" type="curve" smooth="yes"/>
      <point x="262" y="-1"/>
      <point x="274" y="7"/>
      <point x="274" y="21" type="curve" smooth="yes"/>
      <point x="274" y="35"/>
      <point x="264" y="40"/>
      <point x="245" y="48" type="curve"/>
      <point x="228" y="55"/>
      <point x="221" y="66"/>
      <point x="221" y="78" type="curve" smooth="yes"/>
      <point x="220" y="85"/>
      <point x="223" y="93"/>
      <point x="230" y="102" type="curve" smooth="yes"/>
      <point x="356" y="281" type="line" smooth="yes"/>
      <point x="362" y="291"/>
      <point x="369" y="291"/>
      <point x="379" y="276" type="curve" smooth="yes"/>
      <point x="475" y="126" type="line"/>
      <point x="484" y="112"/>
      <point x="487" y="102"/>
      <point x="487" y="92" type="curve" smooth="yes"/>
      <point x="486" y="70"/>
      <point x="470" y="55"/>
      <point x="453" y="49" type="curve" smooth="yes"/>
      <point x="438" y="43"/>
      <point x="419" y="37"/>
      <point x="419" y="23" type="curve" smooth="yes"/>
      <point x="419" y="9"/>
      <point x="432" y="0"/>
      <point x="451" y="0" type="curve" smooth="yes"/>
      <point x="478" y="0"/>
      <point x="518" y="1"/>
      <point x="564" y="1" type="curve" smooth="yes"/>
      <point x="617" y="1"/>
      <point x="693" y="-5"/>
      <point x="725" y="-5" type="curve" smooth="yes"/>
      <point x="744" y="-5"/>
      <point x="757" y="-1"/>
      <point x="757" y="12" type="curve" smooth="yes"/>
      <point x="757" y="26"/>
      <point x="747" y="35"/>
      <point x="716" y="44" type="curve" smooth="yes"/>
      <point x="678" y="55"/>
      <point x="629" y="84"/>
      <point x="598" y="130" type="curve" smooth="yes"/>
      <point x="454" y="350" type="line"/>
      <point x="447" y="365"/>
      <point x="451" y="369"/>
      <point x="468" y="391" type="curve" smooth="yes"/>
      <point x="593" y="558" type="line" smooth="yes"/>
      <point x="632" y="609"/>
      <point x="692" y="647"/>
      <point x="722" y="655" type="curve" smooth="yes"/>
      <point x="750" y="664"/>
      <point x="761" y="671"/>
      <point x="761" y="685" type="curve" smooth="yes"/>
      <point x="761" y="697"/>
      <point x="748" y="707"/>
      <point x="730" y="707" type="curve" smooth="yes"/>
      <point x="698" y="707"/>
      <point x="648" y="701"/>
      <point x="603" y="701" type="curve" smooth="yes"/>
      <point x="569" y="701"/>
      <point x="522" y="702"/>
      <point x="501" y="702" type="curve" smooth="yes"/>
      <point x="483" y="702"/>
      <point x="471" y="694"/>
      <point x="471" y="681" type="curve" smooth="yes"/>
      <point x="471" y="667"/>
      <point x="484" y="656"/>
      <point x="502" y="653" type="curve" smooth="yes"/>
      <point x="524" y="649"/>
      <point x="545" y="641"/>
      <point x="545" y="626" type="curve" smooth="yes"/>
      <point x="545" y="617"/>
      <point x="542" y="607"/>
      <point x="533" y="595" type="curve" smooth="yes"/>
      <point x="421" y="435" type="line" smooth="yes"/>
      <point x="411" y="421"/>
      <point x="405" y="418"/>
      <point x="391" y="438" type="curve" smooth="yes"/>
      <point x="304" y="572" type="line" smooth="yes"/>
      <point x="291" y="591"/>
      <point x="287" y="603"/>
      <point x="287" y="612" type="curve" smooth="yes"/>
      <point x="287" y="633"/>
      <point x="305" y="645"/>
      <point x="324" y="653" type="curve" smooth="yes"/>
      <point x="340" y="659"/>
      <point x="357" y="664"/>
      <point x="357" y="678" type="curve" smooth="yes"/>
      <point x="357" y="692"/>
      <point x="344" y="701"/>
      <point x="325" y="701" type="curve" smooth="yes"/>
      <point x="301" y="701"/>
      <point x="258" y="700"/>
      <point x="214" y="700" type="curve" smooth="yes"/>
      <point x="160" y="700"/>
      <point x="87" y="706"/>
      <point x="53" y="706" type="curve" smooth="yes"/>
      <point x="34" y="706"/>
      <point x="20" y="701"/>
      <point x="20" y="688" type="curve" smooth="yes"/>
      <point x="20" y="674"/>
      <point x="31" y="665"/>
      <point x="62" y="656" type="curve" smooth="yes"/>
      <point x="102" y="643"/>
      <point x="147" y="619"/>
      <point x="184" y="563" type="curve" smooth="yes"/>
      <point x="304" y="380" type="line" smooth="yes"/>
      <point x="323" y="353"/>
      <point x="314" y="337"/>
      <point x="300" y="318" type="curve"/>
      <point x="168" y="138" type="line" smooth="yes"/>
      <point x="130" y="87"/>
      <point x="62" y="56"/>
      <point x="33" y="47" type="curve" smooth="yes"/>
      <point x="6" y="38"/>
      <point x="-5" y="31"/>
      <point x="-5" y="17" type="curve" smooth="yes"/>
      <point x="-5" y="4"/>
      <point x="7" y="-5"/>
    </contour>
  </outline>
</glyph>
<glyph name="Y" format="1">
  <advance width="625"/>
  <unicode hex="0059"/>
  <outline>
    <contour>
      <point x="194" y="-5" type="curve" smooth="yes"/>
      <point x="253" y="-5"/>
      <point x="279" y="0"/>
      <point x="334" y="0" type="curve" smooth="yes"/>
      <point x="385" y="0"/>
      <point x="403" y="-5"/>
      <point x="462" y="-5" type="curve" smooth="yes"/>
      <point x="481" y="-5"/>
      <point x="494" y="0"/>
      <point x="494" y="14" type="curve" smooth="yes"/>
      <point x="494" y="29"/>
      <point x="484" y="38"/>
      <point x="461" y="42" type="curve" smooth="yes"/>
      <point x="410" y="53"/>
      <point x="380" y="86"/>
      <point x="380" y="138" type="curve" smooth="yes"/>
      <point x="380" y="262" type="line" smooth="yes"/>
      <point x="380" y="304"/>
      <point x="379" y="312"/>
      <point x="406" y="359" type="curve" smooth="yes"/>
      <point x="454" y="440"/>
      <point x="479" y="484"/>
      <point x="536" y="574" type="curve" smooth="yes"/>
      <point x="567" y="619"/>
      <point x="583" y="642"/>
      <point x="613" y="649" type="curve" smooth="yes"/>
      <point x="641" y="659"/>
      <point x="666" y="667"/>
      <point x="666" y="680" type="curve" smooth="yes"/>
      <point x="666" y="695"/>
      <point x="657" y="703"/>
      <point x="637" y="703" type="curve" smooth="yes"/>
      <point x="613" y="703"/>
      <point x="573" y="700"/>
      <point x="531" y="700" type="curve" smooth="yes"/>
      <point x="501" y="700"/>
      <point x="470" y="701"/>
      <point x="439" y="701" type="curve" smooth="yes"/>
      <point x="422" y="701"/>
      <point x="409" y="696"/>
      <point x="409" y="684" type="curve" smooth="yes"/>
      <point x="409" y="669"/>
      <point x="429" y="654"/>
      <point x="443" y="651" type="curve" smooth="yes"/>
      <point x="457" y="648"/>
      <point x="473" y="643"/>
      <point x="473" y="621" type="curve" smooth="yes"/>
      <point x="473" y="611"/>
      <point x="471" y="594"/>
      <point x="460" y="572" type="curve" smooth="yes"/>
      <point x="428" y="507"/>
      <point x="409" y="471"/>
      <point x="380" y="422" type="curve" smooth="yes"/>
      <point x="367" y="401"/>
      <point x="360" y="389"/>
      <point x="351" y="389" type="curve" smooth="yes"/>
      <point x="345" y="389"/>
      <point x="336" y="401"/>
      <point x="322" y="427" type="curve" smooth="yes"/>
      <point x="242" y="591" type="line" smooth="yes"/>
      <point x="233" y="607"/>
      <point x="229" y="620"/>
      <point x="229" y="627" type="curve" smooth="yes"/>
      <point x="229" y="641"/>
      <point x="241" y="646"/>
      <point x="256" y="651" type="curve" smooth="yes"/>
      <point x="277" y="658"/>
      <point x="288" y="669"/>
      <point x="288" y="683" type="curve" smooth="yes"/>
      <point x="288" y="696"/>
      <point x="274" y="702"/>
      <point x="255" y="702" type="curve" smooth="yes"/>
      <point x="231" y="702"/>
      <point x="200" y="700"/>
      <point x="164" y="700" type="curve" smooth="yes"/>
      <point x="112" y="700"/>
      <point x="67" y="703"/>
      <point x="33" y="703" type="curve" smooth="yes"/>
      <point x="14" y="703"/>
      <point x="0" y="698"/>
      <point x="0" y="685" type="curve" smooth="yes"/>
      <point x="0" y="670"/>
      <point x="10" y="660"/>
      <point x="39" y="650" type="curve" smooth="yes"/>
      <point x="68" y="640"/>
      <point x="115" y="593"/>
      <point x="127" y="572" type="curve" smooth="yes"/>
      <point x="249" y="359" type="line"/>
      <point x="255" y="349"/>
      <point x="275" y="308"/>
      <point x="275" y="279" type="curve" smooth="yes"/>
      <point x="275" y="138" type="line" smooth="yes"/>
      <point x="275" y="83"/>
      <point x="247" y="53"/>
      <point x="196" y="42" type="curve" smooth="yes"/>
      <point x="172" y="38"/>
      <point x="162" y="29"/>
      <point x="162" y="14" type="curve" smooth="yes"/>
      <point x="162" y="0"/>
      <point x="175" y="-5"/>
    </contour>
  </outline>
</glyph>
<glyph name="Z" format="1">
  <advance width="660"/>
  <unicode hex="005A"/>
  <outline>
    <contour>
      <point x="586" y="-5" type="curve" smooth="yes"/>
      <point x="597" y="-5"/>
      <point x="601" y="4"/>
      <point x="606" y="12" type="curve" smooth="yes"/>
      <point x="617" y="36"/>
      <point x="644" y="147"/>
      <point x="644" y="158" type="curve" smooth="yes"/>
      <point x="644" y="174"/>
      <point x="639" y="182"/>
      <point x="628" y="182" type="curve" smooth="yes"/>
      <point x="609" y="182"/>
      <point x="592" y="158"/>
      <point x="583" y="138" type="curve" smooth="yes"/>
      <point x="564" y="95"/>
      <point x="531" y="70"/>
      <point x="480" y="67" type="curve" smooth="yes"/>
      <point x="435" y="64"/>
      <point x="387" y="62"/>
      <point x="344" y="62" type="curve" smooth="yes"/>
      <point x="301" y="62"/>
      <point x="253" y="64"/>
      <point x="225" y="67" type="curve"/>
      <point x="219" y="68"/>
      <point x="215" y="76"/>
      <point x="215" y="84" type="curve" smooth="yes"/>
      <point x="215" y="89"/>
      <point x="215" y="94"/>
      <point x="218" y="97" type="curve" smooth="yes"/>
      <point x="349" y="295"/>
      <point x="423" y="403"/>
      <point x="561" y="594" type="curve" smooth="yes"/>
      <point x="626" y="682" type="line" smooth="yes"/>
      <point x="630" y="687"/>
      <point x="620" y="700"/>
      <point x="614" y="700" type="curve" smooth="yes"/>
      <point x="530" y="698"/>
      <point x="447" y="697"/>
      <point x="353" y="697" type="curve" smooth="yes"/>
      <point x="302" y="697"/>
      <point x="248" y="697"/>
      <point x="211" y="697" type="curve" smooth="yes"/>
      <point x="175" y="697"/>
      <point x="135" y="707"/>
      <point x="121" y="713" type="curve" smooth="yes"/>
      <point x="110" y="718"/>
      <point x="94" y="727"/>
      <point x="89" y="727" type="curve" smooth="yes"/>
      <point x="83" y="727"/>
      <point x="74" y="725"/>
      <point x="73" y="710" type="curve" smooth="yes"/>
      <point x="70" y="668"/>
      <point x="52" y="613"/>
      <point x="47" y="598" type="curve"/>
      <point x="42" y="587"/>
      <point x="37" y="567"/>
      <point x="38" y="556" type="curve" smooth="yes"/>
      <point x="38" y="547"/>
      <point x="47" y="540"/>
      <point x="58" y="540" type="curve" smooth="yes"/>
      <point x="81" y="540"/>
      <point x="89" y="562"/>
      <point x="97" y="582" type="curve"/>
      <point x="113" y="617"/>
      <point x="146" y="633"/>
      <point x="188" y="635" type="curve" smooth="yes"/>
      <point x="209" y="636"/>
      <point x="246" y="636"/>
      <point x="283" y="636" type="curve" smooth="yes"/>
      <point x="334" y="636"/>
      <point x="396" y="635"/>
      <point x="430" y="634" type="curve"/>
      <point x="444" y="633"/>
      <point x="448" y="630"/>
      <point x="448" y="626" type="curve" smooth="yes"/>
      <point x="448" y="623"/>
      <point x="446" y="621"/>
      <point x="444" y="618" type="curve" smooth="yes"/>
      <point x="312" y="418"/>
      <point x="232" y="314"/>
      <point x="90" y="112" type="curve" smooth="yes"/>
      <point x="66" y="78"/>
      <point x="29" y="22"/>
      <point x="29" y="11" type="curve"/>
      <point x="29" y="11"/>
      <point x="30" y="-3"/>
      <point x="37" y="-3" type="curve" smooth="yes"/>
      <point x="122" y="-3" type="line" smooth="yes"/>
      <point x="164" y="-3"/>
      <point x="209" y="-2"/>
      <point x="253" y="-2" type="curve" smooth="yes"/>
      <point x="351" y="-2"/>
      <point x="460" y="-5"/>
    </contour>
  </outline>
</glyph>
<glyph name="bracketleft" format="1">
  <advance width="348"/>
  <unicode hex="005B"/>
  <outline>
    <contour>
      <point x="302" y="-199" type="line" smooth="yes"/>
      <point x="315" y="-199"/>
      <point x="328" y="-193"/>
      <point x="328" y="-172" type="curve" smooth="yes"/>
      <point x="328" y="-152"/>
      <point x="311" y="-141"/>
      <point x="294" y="-140" type="curve"/>
      <point x="226" y="-136" type="line" smooth="yes"/>
      <point x="201" y="-134"/>
      <point x="192" y="-117"/>
      <point x="192" y="-81" type="curve" smooth="yes"/>
      <point x="192" y="589" type="line" smooth="yes"/>
      <point x="192" y="622"/>
      <point x="202" y="640"/>
      <point x="226" y="641" type="curve" smooth="yes"/>
      <point x="294" y="643" type="line" smooth="yes"/>
      <point x="311" y="643"/>
      <point x="328" y="655"/>
      <point x="328" y="675" type="curve" smooth="yes"/>
      <point x="328" y="695"/>
      <point x="317" y="701"/>
      <point x="305" y="701" type="curve" smooth="yes"/>
      <point x="148" y="702" type="line" smooth="yes"/>
      <point x="116" y="702"/>
      <point x="110" y="702"/>
      <point x="110" y="668" type="curve" smooth="yes"/>
      <point x="110" y="-169" type="line" smooth="yes"/>
      <point x="110" y="-200"/>
      <point x="117" y="-200"/>
      <point x="146" y="-200" type="curve" smooth="yes"/>
    </contour>
  </outline>
</glyph>
<glyph name="asciicircum" format="1">
  <advance width="522"/>
  <unicode hex="005E"/>
  <outline>
    <contour>
      <point x="130" y="311" type="curve" smooth="yes"/>
      <point x="252" y="470" type="line"/>
      <point x="259" y="478"/>
      <point x="261" y="478"/>
      <point x="268" y="470" type="curve"/>
      <point x="392" y="311" type="line" smooth="yes"/>
      <point x="402" y="297"/>
      <point x="432" y="283"/>
      <point x="453" y="283" type="curve" smooth="yes"/>
      <point x="468" y="283"/>
      <point x="471" y="303"/>
      <point x="463" y="314" type="curve"/>
      <point x="264" y="603" type="line"/>
      <point x="259" y="603" type="line"/>
      <point x="59" y="314" type="line"/>
      <point x="55" y="310"/>
      <point x="54" y="304"/>
      <point x="54" y="299" type="curve" smooth="yes"/>
      <point x="54" y="290"/>
      <point x="60" y="283"/>
      <point x="68" y="283" type="curve" smooth="yes"/>
      <point x="86" y="283"/>
      <point x="117" y="293"/>
    </contour>
  </outline>
</glyph>
<glyph name="underscore" format="1">
  <advance width="522"/>
  <unicode hex="005F"/>
  <outline>
    <contour>
      <point x="18" y="-191" type="curve" smooth="yes"/>
      <point x="479" y="-191" type="line" smooth="yes"/>
      <point x="500" y="-191"/>
      <point x="522" y="-156"/>
      <point x="522" y="-138" type="curve" smooth="yes"/>
      <point x="522" y="-130"/>
      <point x="511" y="-123"/>
      <point x="504" y="-123" type="curve" smooth="yes"/>
      <point x="32" y="-123" type="line" smooth="yes"/>
      <point x="7" y="-123"/>
      <point x="0" y="-163"/>
      <point x="0" y="-175" type="curve" smooth="yes"/>
      <point x="0" y="-183"/>
      <point x="10" y="-191"/>
    </contour>
  </outline>
</glyph>
<glyph name="grave" format="1">
  <advance width="224"/>
  <unicode hex="0060"/>
  <outline>
    <contour>
      <point x="186" y="446" type="curve" smooth="yes"/>
      <point x="199" y="446"/>
      <point x="205" y="450"/>
      <point x="200" y="467" type="curve" smooth="yes"/>
      <point x="198" y="475"/>
      <point x="195" y="486"/>
      <point x="187" y="499" type="curve" smooth="yes"/>
      <point x="168" y="531"/>
      <point x="133" y="585"/>
      <point x="114" y="614" type="curve" smooth="yes"/>
      <point x="102" y="634"/>
      <point x="89" y="639"/>
      <point x="70" y="639" type="curve" smooth="yes"/>
      <point x="41" y="639"/>
      <point x="19" y="631"/>
      <point x="22" y="614" type="curve" smooth="yes"/>
      <point x="24" y="607"/>
      <point x="29" y="599"/>
      <point x="36" y="590" type="curve" smooth="yes"/>
      <point x="70" y="539"/>
      <point x="95" y="516"/>
      <point x="132" y="478" type="curve" smooth="yes"/>
      <point x="153" y="456"/>
      <point x="175" y="446"/>
    </contour>
  </outline>
</glyph>
<glyph name="a" format="1">
  <advance width="446"/>
  <unicode hex="0061"/>
  <outline>
    <contour>
      <point x="128" y="-14" type="curve" smooth="yes"/>
      <point x="177" y="-14"/>
      <point x="219" y="2"/>
      <point x="268" y="38" type="curve"/>
      <point x="271" y="38" type="line"/>
      <point x="292" y="3"/>
      <point x="319" y="-14"/>
      <point x="354" y="-14" type="curve" smooth="yes"/>
      <point x="377" y="-14"/>
      <point x="408" y="0"/>
      <point x="432" y="21" type="curve" smooth="yes"/>
      <point x="439" y="27"/>
      <point x="445" y="37"/>
      <point x="445" y="43" type="curve" smooth="yes"/>
      <point x="445" y="53"/>
      <point x="437" y="61"/>
      <point x="427" y="61" type="curve" smooth="yes"/>
      <point x="424" y="61"/>
      <point x="421" y="58"/>
      <point x="415" y="52" type="curve" smooth="yes"/>
      <point x="407" y="45"/>
      <point x="397" y="43"/>
      <point x="381" y="43" type="curve" smooth="yes"/>
      <point x="362" y="43"/>
      <point x="349" y="59"/>
      <point x="349" y="83" type="curve" smooth="yes"/>
      <point x="354" y="316" type="line" smooth="yes"/>
      <point x="355" y="366"/>
      <point x="315" y="404"/>
      <point x="260" y="404" type="curve" smooth="yes"/>
      <point x="213" y="404"/>
      <point x="140" y="374"/>
      <point x="88" y="333" type="curve" smooth="yes"/>
      <point x="59" y="311"/>
      <point x="42" y="285"/>
      <point x="42" y="264" type="curve" smooth="yes"/>
      <point x="42" y="259"/>
      <point x="46" y="255"/>
      <point x="55" y="255" type="curve" smooth="yes"/>
      <point x="78" y="255"/>
      <point x="132" y="280"/>
      <point x="132" y="290" type="curve" smooth="yes"/>
      <point x="132" y="295"/>
      <point x="131" y="303"/>
      <point x="131" y="303" type="curve" smooth="yes"/>
      <point x="131" y="312"/>
      <point x="133" y="320"/>
      <point x="142" y="324" type="curve" smooth="yes"/>
      <point x="156" y="332"/>
      <point x="180" y="337"/>
      <point x="202" y="337" type="curve" smooth="yes"/>
      <point x="244" y="337"/>
      <point x="268" y="317"/>
      <point x="266" y="292" type="curve" smooth="yes"/>
      <point x="264" y="250" type="line" smooth="yes"/>
      <point x="263" y="222"/>
      <point x="263" y="219"/>
      <point x="235" y="209" type="curve" smooth="yes"/>
      <point x="117" y="167" type="line" smooth="yes"/>
      <point x="62" y="148"/>
      <point x="37" y="120"/>
      <point x="37" y="75" type="curve" smooth="yes"/>
      <point x="37" y="32"/>
      <point x="89" y="-14"/>
    </contour>
    <contour>
      <point x="186" y="57" type="curve" smooth="yes"/>
      <point x="159" y="57"/>
      <point x="133" y="68"/>
      <point x="133" y="92" type="curve" smooth="yes"/>
      <point x="133" y="115"/>
      <point x="154" y="129"/>
      <point x="234" y="152" type="curve" smooth="yes"/>
      <point x="246" y="155"/>
      <point x="251" y="156"/>
      <point x="255" y="156" type="curve" smooth="yes"/>
      <point x="263" y="156"/>
      <point x="265" y="151"/>
      <point x="265" y="142" type="curve" smooth="yes"/>
      <point x="263" y="100" type="line" smooth="yes"/>
      <point x="262" y="86"/>
      <point x="256" y="79"/>
      <point x="247" y="74" type="curve" smooth="yes"/>
      <point x="232" y="63"/>
      <point x="209" y="57"/>
    </contour>
  </outline>
</glyph>
<glyph name="b" format="1">
  <advance width="568"/>
  <unicode hex="0062"/>
  <outline>
    <contour>
      <point x="292" y="-14" type="curve" smooth="yes"/>
      <point x="434" y="-14"/>
      <point x="531" y="78"/>
      <point x="531" y="212" type="curve" smooth="yes"/>
      <point x="531" y="320"/>
      <point x="445" y="404"/>
      <point x="335" y="404" type="curve" smooth="yes"/>
      <point x="287" y="404"/>
      <point x="220" y="380"/>
      <point x="172" y="347" type="curve"/>
      <point x="165" y="348"/>
      <point x="163" y="354"/>
      <point x="163" y="379" type="curve" smooth="yes"/>
      <point x="163" y="702" type="line" smooth="yes"/>
      <point x="163" y="758"/>
      <point x="166" y="802"/>
      <point x="166" y="807" type="curve" smooth="yes"/>
      <point x="166" y="811"/>
      <point x="163" y="814"/>
      <point x="160" y="814" type="curve" smooth="yes"/>
      <point x="158" y="814"/>
      <point x="155" y="813"/>
      <point x="150" y="811" type="curve" smooth="yes"/>
      <point x="135" y="805"/>
      <point x="63" y="787"/>
      <point x="33" y="781" type="curve" smooth="yes"/>
      <point x="24" y="779"/>
      <point x="17" y="771"/>
      <point x="17" y="763" type="curve" smooth="yes"/>
      <point x="17" y="755"/>
      <point x="24" y="744"/>
      <point x="30" y="741" type="curve" smooth="yes"/>
      <point x="64" y="726"/>
      <point x="77" y="715"/>
      <point x="77" y="668" type="curve" smooth="yes"/>
      <point x="77" y="81" type="line" smooth="yes"/>
      <point x="77" y="56"/>
      <point x="69" y="21"/>
      <point x="69" y="9" type="curve" smooth="yes"/>
      <point x="69" y="2"/>
      <point x="78" y="-3"/>
      <point x="85" y="-3" type="curve" smooth="yes"/>
      <point x="88" y="-3"/>
      <point x="91" y="-1"/>
      <point x="95" y="2" type="curve" smooth="yes"/>
      <point x="102" y="8"/>
      <point x="111" y="15"/>
      <point x="120" y="15" type="curve" smooth="yes"/>
      <point x="128" y="15"/>
      <point x="155" y="6"/>
      <point x="188" y="-1" type="curve" smooth="yes"/>
      <point x="219" y="-8"/>
      <point x="257" y="-14"/>
    </contour>
    <contour>
      <point x="309" y="40" type="curve" smooth="yes"/>
      <point x="234" y="40"/>
      <point x="163" y="77"/>
      <point x="163" y="134" type="curve" smooth="yes"/>
      <point x="163" y="295" type="line"/>
      <point x="194" y="317"/>
      <point x="237" y="332"/>
      <point x="293" y="332" type="curve" smooth="yes"/>
      <point x="395" y="332"/>
      <point x="440" y="251"/>
      <point x="440" y="186" type="curve" smooth="yes"/>
      <point x="440" y="104"/>
      <point x="390" y="40"/>
    </contour>
  </outline>
</glyph>
<glyph name="d" format="1">
  <advance width="560"/>
  <unicode hex="0064"/>
  <outline>
    <contour>
      <point x="394" y="-19" type="curve" smooth="yes"/>
      <point x="399" y="-19"/>
      <point x="401" y="-19"/>
      <point x="413" y="-13" type="curve" smooth="yes"/>
      <point x="465" y="7"/>
      <point x="503" y="16"/>
      <point x="537" y="20" type="curve" smooth="yes"/>
      <point x="550" y="21"/>
      <point x="558" y="36"/>
      <point x="558" y="53" type="curve" smooth="yes"/>
      <point x="558" y="65"/>
      <point x="548" y="72"/>
      <point x="534" y="71" type="curve" smooth="yes"/>
      <point x="517" y="70"/>
      <point x="504" y="66"/>
      <point x="497" y="66" type="curve" smooth="yes"/>
      <point x="482" y="66"/>
      <point x="476" y="95"/>
      <point x="476" y="127" type="curve" smooth="yes"/>
      <point x="476" y="671" type="line" smooth="yes"/>
      <point x="476" y="761"/>
      <point x="484" y="795"/>
      <point x="482" y="807" type="curve"/>
      <point x="481" y="811"/>
      <point x="479" y="813"/>
      <point x="475" y="813" type="curve" smooth="yes"/>
      <point x="472" y="813"/>
      <point x="466" y="812"/>
      <point x="460" y="810" type="curve" smooth="yes"/>
      <point x="438" y="802"/>
      <point x="406" y="795"/>
      <point x="347" y="782" type="curve" smooth="yes"/>
      <point x="333" y="779"/>
      <point x="329" y="771"/>
      <point x="329" y="761" type="curve" smooth="yes"/>
      <point x="329" y="754"/>
      <point x="335" y="743"/>
      <point x="342" y="741" type="curve" smooth="yes"/>
      <point x="375" y="728"/>
      <point x="389" y="718"/>
      <point x="389" y="663" type="curve" smooth="yes"/>
      <point x="389" y="414" type="line" smooth="yes"/>
      <point x="389" y="396"/>
      <point x="385" y="390"/>
      <point x="382" y="390" type="curve" smooth="yes"/>
      <point x="378" y="390"/>
      <point x="374" y="391"/>
      <point x="367" y="393" type="curve" smooth="yes"/>
      <point x="351" y="398"/>
      <point x="317" y="404"/>
      <point x="287" y="404" type="curve" smooth="yes"/>
      <point x="131" y="404"/>
      <point x="37" y="299"/>
      <point x="37" y="185" type="curve" smooth="yes"/>
      <point x="37" y="86"/>
      <point x="116" y="-14"/>
      <point x="242" y="-14" type="curve" smooth="yes"/>
      <point x="316" y="-14"/>
      <point x="366" y="25"/>
      <point x="388" y="56" type="curve"/>
      <point x="388" y="49" type="line" smooth="yes"/>
      <point x="389" y="33"/>
      <point x="383" y="3"/>
      <point x="383" y="-9" type="curve" smooth="yes"/>
      <point x="383" y="-12"/>
      <point x="391" y="-19"/>
    </contour>
    <contour>
      <point x="287" y="59" type="curve" smooth="yes"/>
      <point x="240" y="59"/>
      <point x="127" y="80"/>
      <point x="127" y="208" type="curve" smooth="yes"/>
      <point x="127" y="321"/>
      <point x="209" y="349"/>
      <point x="259" y="349" type="curve" smooth="yes"/>
      <point x="359" y="349"/>
      <point x="390" y="309"/>
      <point x="389" y="255" type="curve" smooth="yes"/>
      <point x="388" y="101" type="line"/>
      <point x="362" y="76"/>
      <point x="324" y="59"/>
    </contour>
  </outline>
</glyph>
<glyph name="e" format="1">
  <advance width="433"/>
  <unicode hex="0065"/>
  <outline>
    <contour>
      <point x="239" y="-15" type="curve" smooth="yes"/>
      <point x="288" y="-15"/>
      <point x="337" y="-2"/>
      <point x="371" y="23" type="curve" smooth="yes"/>
      <point x="395" y="40"/>
      <point x="413" y="68"/>
      <point x="413" y="98" type="curve" smooth="yes"/>
      <point x="413" y="107"/>
      <point x="408" y="113"/>
      <point x="399" y="113" type="curve" smooth="yes"/>
      <point x="392" y="113"/>
      <point x="389" y="111"/>
      <point x="379" y="97" type="curve" smooth="yes"/>
      <point x="354" y="65"/>
      <point x="320" y="46"/>
      <point x="278" y="46" type="curve" smooth="yes"/>
      <point x="184" y="46"/>
      <point x="112" y="116"/>
      <point x="112" y="204" type="curve" smooth="yes"/>
      <point x="112" y="230"/>
      <point x="118" y="237"/>
      <point x="138" y="237" type="curve" smooth="yes"/>
      <point x="368" y="237" type="line" smooth="yes"/>
      <point x="392" y="237"/>
      <point x="402" y="248"/>
      <point x="402" y="271" type="curve" smooth="yes"/>
      <point x="402" y="349"/>
      <point x="339" y="404"/>
      <point x="249" y="404" type="curve" smooth="yes"/>
      <point x="130" y="404"/>
      <point x="31" y="311"/>
      <point x="31" y="198" type="curve" smooth="yes"/>
      <point x="31" y="70"/>
      <point x="114" y="-15"/>
    </contour>
    <contour>
      <point x="146" y="281" type="line" smooth="yes"/>
      <point x="138" y="281"/>
      <point x="134" y="283"/>
      <point x="134" y="289" type="curve" smooth="yes"/>
      <point x="134" y="317"/>
      <point x="187" y="352"/>
      <point x="234" y="352" type="curve" smooth="yes"/>
      <point x="283" y="352"/>
      <point x="322" y="328"/>
      <point x="322" y="301" type="curve" smooth="yes"/>
      <point x="322" y="291"/>
      <point x="320" y="286"/>
      <point x="313" y="285" type="curve" smooth="yes"/>
      <point x="291" y="282"/>
      <point x="270" y="281"/>
      <point x="238" y="281" type="curve" smooth="yes"/>
    </contour>
  </outline>
</glyph>
<glyph name="f" format="1">
  <advance width="347"/>
  <unicode hex="0066"/>
  <outline>
    <contour>
      <point x="47" y="-3" type="curve" smooth="yes"/>
      <point x="90" y="-3"/>
      <point x="97" y="2"/>
      <point x="136" y="2" type="curve" smooth="yes"/>
      <point x="174" y="2"/>
      <point x="206" y="-3"/>
      <point x="249" y="-3" type="curve" smooth="yes"/>
      <point x="259" y="-3"/>
      <point x="271" y="-1"/>
      <point x="271" y="13" type="curve" smooth="yes"/>
      <point x="271" y="29"/>
      <point x="259" y="36"/>
      <point x="247" y="41" type="curve" smooth="yes"/>
      <point x="215" y="51"/>
      <point x="179" y="58"/>
      <point x="179" y="96" type="curve" smooth="yes"/>
      <point x="179" y="308" type="line" smooth="yes"/>
      <point x="179" y="316"/>
      <point x="182" y="321"/>
      <point x="199" y="321" type="curve" smooth="yes"/>
      <point x="292" y="321" type="line" smooth="yes"/>
      <point x="306" y="321"/>
      <point x="315" y="324"/>
      <point x="320" y="334" type="curve" smooth="yes"/>
      <point x="324" y="342"/>
      <point x="333" y="370"/>
      <point x="333" y="379" type="curve" smooth="yes"/>
      <point x="333" y="385"/>
      <point x="326" y="390"/>
      <point x="319" y="390" type="curve" smooth="yes"/>
      <point x="190" y="390" type="line" smooth="yes"/>
      <point x="184" y="390"/>
      <point x="179" y="392"/>
      <point x="179" y="400" type="curve" smooth="yes"/>
      <point x="179" y="582" type="line" smooth="yes"/>
      <point x="179" y="701"/>
      <point x="226" y="757"/>
      <point x="293" y="757" type="curve" smooth="yes"/>
      <point x="339" y="757"/>
      <point x="359" y="740"/>
      <point x="378" y="725" type="curve" smooth="yes"/>
      <point x="391" y="714"/>
      <point x="401" y="704"/>
      <point x="414" y="704" type="curve" smooth="yes"/>
      <point x="434" y="704"/>
      <point x="453" y="718"/>
      <point x="453" y="740" type="curve" smooth="yes"/>
      <point x="453" y="784"/>
      <point x="415" y="815"/>
      <point x="332" y="815" type="curve" smooth="yes"/>
      <point x="238" y="815"/>
      <point x="93" y="755"/>
      <point x="93" y="547" type="curve" smooth="yes"/>
      <point x="93" y="396" type="line"/>
      <point x="72" y="386"/>
      <point x="57" y="372"/>
      <point x="37" y="356" type="curve" smooth="yes"/>
      <point x="30" y="350"/>
      <point x="25" y="344"/>
      <point x="25" y="337" type="curve" smooth="yes"/>
      <point x="25" y="330"/>
      <point x="35" y="321"/>
      <point x="40" y="321" type="curve"/>
      <point x="62" y="319"/>
      <point x="79" y="319"/>
      <point x="93" y="319" type="curve"/>
      <point x="93" y="96" type="line" smooth="yes"/>
      <point x="93" y="58"/>
      <point x="73" y="49"/>
      <point x="49" y="41" type="curve" smooth="yes"/>
      <point x="37" y="37"/>
      <point x="25" y="29"/>
      <point x="25" y="13" type="curve" smooth="yes"/>
      <point x="25" y="-1"/>
      <point x="37" y="-3"/>
    </contour>
  </outline>
</glyph>
<glyph name="g" format="1">
  <advance width="485"/>
  <unicode hex="0067"/>
  <outline>
    <contour>
      <point x="218" y="-352" type="curve" smooth="yes"/>
      <point x="340" y="-352"/>
      <point x="469" y="-227"/>
      <point x="469" y="-109" type="curve" smooth="yes"/>
      <point x="469" y="-46"/>
      <point x="416" y="-5"/>
      <point x="264" y="3" type="curve" smooth="yes"/>
      <point x="178" y="8"/>
      <point x="116" y="28"/>
      <point x="124" y="61" type="curve" smooth="yes"/>
      <point x="124" y="78"/>
      <point x="149" y="103"/>
      <point x="180" y="117" type="curve"/>
      <point x="125" y="142" type="line"/>
      <point x="115" y="121"/>
      <point x="110" y="116"/>
      <point x="66" y="74" type="curve" smooth="yes"/>
      <point x="50" y="59"/>
      <point x="44" y="45"/>
      <point x="44" y="30" type="curve" smooth="yes"/>
      <point x="44" y="-28"/>
      <point x="88" y="-53"/>
      <point x="230" y="-66" type="curve" smooth="yes"/>
      <point x="345" y="-74"/>
      <point x="391" y="-94"/>
      <point x="391" y="-142" type="curve" smooth="yes"/>
      <point x="391" y="-193"/>
      <point x="370" y="-237"/>
      <point x="334" y="-264" type="curve" smooth="yes"/>
      <point x="309" y="-284"/>
      <point x="272" y="-294"/>
      <point x="228" y="-294" type="curve" smooth="yes"/>
      <point x="155" y="-294"/>
      <point x="103" y="-254"/>
      <point x="103" y="-191" type="curve" smooth="yes"/>
      <point x="103" y="-132"/>
      <point x="129" y="-97"/>
      <point x="192" y="-52" type="curve"/>
      <point x="153" y="-32" type="line"/>
      <point x="109" y="-70"/>
      <point x="71" y="-102"/>
      <point x="49" y="-122" type="curve" smooth="yes"/>
      <point x="23" y="-144"/>
      <point x="11" y="-172"/>
      <point x="11" y="-216" type="curve" smooth="yes"/>
      <point x="11" y="-300"/>
      <point x="90" y="-352"/>
    </contour>
    <contour>
      <point x="233" y="161" type="curve" smooth="yes"/>
      <point x="176" y="161"/>
      <point x="129" y="207"/>
      <point x="129" y="261" type="curve" smooth="yes"/>
      <point x="129" y="309"/>
      <point x="174" y="351"/>
      <point x="225" y="351" type="curve" smooth="yes"/>
      <point x="280" y="351"/>
      <point x="327" y="310"/>
      <point x="327" y="265" type="curve" smooth="yes"/>
      <point x="327" y="206"/>
      <point x="286" y="161"/>
    </contour>
    <contour>
      <point x="223" y="103" type="curve" smooth="yes"/>
      <point x="328" y="103"/>
      <point x="405" y="179"/>
      <point x="405" y="269" type="curve" smooth="yes"/>
      <point x="405" y="285"/>
      <point x="407" y="301"/>
      <point x="412" y="309" type="curve" smooth="yes"/>
      <point x="414" y="313"/>
      <point x="424" y="316"/>
      <point x="444" y="316" type="curve" smooth="yes"/>
      <point x="472" y="316" type="line"/>
      <point x="474" y="316"/>
      <point x="477" y="319"/>
      <point x="481" y="323" type="curve" smooth="yes"/>
      <point x="487" y="333"/>
      <point x="491" y="346"/>
      <point x="491" y="353" type="curve" smooth="yes"/>
      <point x="491" y="368"/>
      <point x="484" y="378"/>
      <point x="477" y="378" type="curve" smooth="yes"/>
      <point x="465" y="378"/>
      <point x="433" y="375"/>
      <point x="415" y="375" type="curve" smooth="yes"/>
      <point x="393" y="375"/>
      <point x="376" y="376"/>
      <point x="340" y="384" type="curve" smooth="yes"/>
      <point x="309" y="392"/>
      <point x="280" y="405"/>
      <point x="237" y="405" type="curve" smooth="yes"/>
      <point x="135" y="405"/>
      <point x="43" y="342"/>
      <point x="43" y="251" type="curve" smooth="yes"/>
      <point x="43" y="171"/>
      <point x="132" y="103"/>
    </contour>
  </outline>
</glyph>
<glyph name="h" format="1">
  <advance width="573"/>
  <unicode hex="0068"/>
  <outline>
    <contour>
      <point x="42" y="-3" type="curve" smooth="yes"/>
      <point x="85" y="-3"/>
      <point x="92" y="6"/>
      <point x="130" y="6" type="curve" smooth="yes"/>
      <point x="169" y="6"/>
      <point x="173" y="-3"/>
      <point x="217" y="-3" type="curve" smooth="yes"/>
      <point x="232" y="-3"/>
      <point x="239" y="2"/>
      <point x="239" y="16" type="curve" smooth="yes"/>
      <point x="239" y="30"/>
      <point x="232" y="36"/>
      <point x="216" y="43" type="curve" smooth="yes"/>
      <point x="196" y="51"/>
      <point x="173" y="59"/>
      <point x="173" y="94" type="curve" smooth="yes"/>
      <point x="173" y="248" type="line" smooth="yes"/>
      <point x="173" y="278"/>
      <point x="179" y="289"/>
      <point x="200" y="302" type="curve" smooth="yes"/>
      <point x="222" y="315"/>
      <point x="264" y="323"/>
      <point x="294" y="323" type="curve" smooth="yes"/>
      <point x="350" y="323"/>
      <point x="395" y="290"/>
      <point x="395" y="232" type="curve" smooth="yes"/>
      <point x="395" y="95" type="line" smooth="yes"/>
      <point x="395" y="59"/>
      <point x="373" y="52"/>
      <point x="353" y="43" type="curve" smooth="yes"/>
      <point x="339" y="38"/>
      <point x="329" y="30"/>
      <point x="329" y="13" type="curve" smooth="yes"/>
      <point x="329" y="-1"/>
      <point x="341" y="-3"/>
      <point x="351" y="-3" type="curve" smooth="yes"/>
      <point x="395" y="-3"/>
      <point x="401" y="6"/>
      <point x="440" y="6" type="curve" smooth="yes"/>
      <point x="478" y="6"/>
      <point x="483" y="-3"/>
      <point x="527" y="-3" type="curve" smooth="yes"/>
      <point x="538" y="-3"/>
      <point x="549" y="-1"/>
      <point x="549" y="13" type="curve" smooth="yes"/>
      <point x="549" y="30"/>
      <point x="537" y="36"/>
      <point x="525" y="43" type="curve" smooth="yes"/>
      <point x="506" y="54"/>
      <point x="482" y="59"/>
      <point x="482" y="95" type="curve" smooth="yes"/>
      <point x="482" y="268" type="line" smooth="yes"/>
      <point x="482" y="346"/>
      <point x="427" y="404"/>
      <point x="353" y="404" type="curve" smooth="yes"/>
      <point x="270" y="404"/>
      <point x="194" y="350"/>
      <point x="164" y="332" type="curve"/>
      <point x="186" y="331" type="line"/>
      <point x="176" y="347"/>
      <point x="173" y="350"/>
      <point x="173" y="378" type="curve" smooth="yes"/>
      <point x="174" y="671" type="line" smooth="yes"/>
      <point x="174" y="778"/>
      <point x="183" y="795"/>
      <point x="183" y="807" type="curve" smooth="yes"/>
      <point x="183" y="811"/>
      <point x="180" y="814"/>
      <point x="176" y="814" type="curve" smooth="yes"/>
      <point x="173" y="814"/>
      <point x="171" y="813"/>
      <point x="169" y="812" type="curve" smooth="yes"/>
      <point x="132" y="800"/>
      <point x="74" y="788"/>
      <point x="51" y="782" type="curve" smooth="yes"/>
      <point x="36" y="778"/>
      <point x="33" y="771"/>
      <point x="33" y="762" type="curve" smooth="yes"/>
      <point x="33" y="749"/>
      <point x="36" y="740"/>
      <point x="48" y="738" type="curve" smooth="yes"/>
      <point x="76" y="733"/>
      <point x="87" y="707"/>
      <point x="87" y="675" type="curve" smooth="yes"/>
      <point x="87" y="94" type="line" smooth="yes"/>
      <point x="87" y="59"/>
      <point x="64" y="50"/>
      <point x="43" y="43" type="curve" smooth="yes"/>
      <point x="27" y="37"/>
      <point x="20" y="32"/>
      <point x="20" y="16" type="curve" smooth="yes"/>
      <point x="20" y="2"/>
      <point x="29" y="-3"/>
    </contour>
  </outline>
</glyph>
<glyph name="i" format="1">
  <advance width="265"/>
  <unicode hex="0069"/>
  <outline>
    <contour>
      <point x="47" y="-3" type="curve" smooth="yes"/>
      <point x="90" y="-3"/>
      <point x="97" y="2"/>
      <point x="135" y="2" type="curve" smooth="yes"/>
      <point x="174" y="6"/>
      <point x="182" y="-3"/>
      <point x="224" y="-3" type="curve" smooth="yes"/>
      <point x="238" y="-3"/>
      <point x="246" y="2"/>
      <point x="246" y="16" type="curve" smooth="yes"/>
      <point x="246" y="32"/>
      <point x="234" y="37"/>
      <point x="222" y="42" type="curve" smooth="yes"/>
      <point x="195" y="52"/>
      <point x="179" y="63"/>
      <point x="179" y="94" type="curve" smooth="yes"/>
      <point x="179" y="283" type="line" smooth="yes"/>
      <point x="179" y="328"/>
      <point x="187" y="393"/>
      <point x="187" y="409" type="curve" smooth="yes"/>
      <point x="187" y="416"/>
      <point x="183" y="423"/>
      <point x="176" y="423" type="curve" smooth="yes"/>
      <point x="169" y="423"/>
      <point x="160" y="417"/>
      <point x="155" y="413" type="curve" smooth="yes"/>
      <point x="135" y="399"/>
      <point x="110" y="383"/>
      <point x="50" y="371" type="curve" smooth="yes"/>
      <point x="41" y="369"/>
      <point x="36" y="362"/>
      <point x="36" y="354" type="curve" smooth="yes"/>
      <point x="36" y="344"/>
      <point x="41" y="336"/>
      <point x="50" y="334" type="curve" smooth="yes"/>
      <point x="84" y="328"/>
      <point x="92" y="297"/>
      <point x="92" y="256" type="curve" smooth="yes"/>
      <point x="92" y="94" type="line" smooth="yes"/>
      <point x="92" y="61"/>
      <point x="76" y="52"/>
      <point x="48" y="42" type="curve" smooth="yes"/>
      <point x="37" y="37"/>
      <point x="25" y="32"/>
      <point x="25" y="16" type="curve" smooth="yes"/>
      <point x="25" y="2"/>
      <point x="34" y="-3"/>
    </contour>
    <contour>
      <point x="134" y="505" type="curve" smooth="yes"/>
      <point x="169" y="505"/>
      <point x="194" y="526"/>
      <point x="194" y="555" type="curve" smooth="yes"/>
      <point x="194" y="584"/>
      <point x="169" y="606"/>
      <point x="134" y="606" type="curve" smooth="yes"/>
      <point x="100" y="606"/>
      <point x="76" y="584"/>
      <point x="76" y="555" type="curve" smooth="yes"/>
      <point x="76" y="526"/>
      <point x="100" y="505"/>
    </contour>
  </outline>
</glyph>
<glyph name="j" format="1">
  <advance width="245"/>
  <unicode hex="006A"/>
  <outline>
    <contour>
      <point x="11" y="-351" type="curve" smooth="yes"/>
      <point x="51" y="-351"/>
      <point x="116" y="-284"/>
      <point x="143" y="-216" type="curve" smooth="yes"/>
      <point x="174" y="-136"/>
      <point x="175" y="-35"/>
      <point x="175" y="27" type="curve" smooth="yes"/>
      <point x="175" y="264" type="line" smooth="yes"/>
      <point x="175" y="309"/>
      <point x="178" y="377"/>
      <point x="182" y="418" type="curve"/>
      <point x="182" y="421"/>
      <point x="179" y="423"/>
      <point x="175" y="423" type="curve" smooth="yes"/>
      <point x="173" y="423"/>
      <point x="169" y="420"/>
      <point x="161" y="416" type="curve" smooth="yes"/>
      <point x="139" y="405"/>
      <point x="100" y="379"/>
      <point x="49" y="372" type="curve" smooth="yes"/>
      <point x="38" y="370"/>
      <point x="34" y="359"/>
      <point x="34" y="354" type="curve" smooth="yes"/>
      <point x="34" y="344"/>
      <point x="39" y="337"/>
      <point x="47" y="334" type="curve" smooth="yes"/>
      <point x="81" y="323"/>
      <point x="89" y="301"/>
      <point x="89" y="263" type="curve" smooth="yes"/>
      <point x="89" y="11" type="line" smooth="yes"/>
      <point x="89" y="-55"/>
      <point x="86" y="-180"/>
      <point x="57" y="-239" type="curve" smooth="yes"/>
      <point x="38" y="-276"/>
      <point x="16" y="-291"/>
      <point x="1" y="-295" type="curve"/>
      <point x="-10" y="-298"/>
      <point x="-23" y="-311"/>
      <point x="-23" y="-326" type="curve" smooth="yes"/>
      <point x="-23" y="-342"/>
      <point x="-3" y="-351"/>
    </contour>
    <contour>
      <point x="125" y="505" type="curve" smooth="yes"/>
      <point x="160" y="505"/>
      <point x="184" y="526"/>
      <point x="184" y="555" type="curve" smooth="yes"/>
      <point x="184" y="584"/>
      <point x="160" y="606"/>
      <point x="125" y="606" type="curve" smooth="yes"/>
      <point x="91" y="606"/>
      <point x="66" y="584"/>
      <point x="66" y="555" type="curve" smooth="yes"/>
      <point x="66" y="526"/>
      <point x="91" y="505"/>
    </contour>
  </outline>
</glyph>
<glyph name="m" format="1">
  <advance width="858"/>
  <unicode hex="006D"/>
  <outline>
    <contour>
      <point x="50" y="-3" type="curve" smooth="yes"/>
      <point x="93" y="-3"/>
      <point x="97" y="2"/>
      <point x="135" y="2" type="curve" smooth="yes"/>
      <point x="174" y="2"/>
      <point x="178" y="-3"/>
      <point x="222" y="-3" type="curve" smooth="yes"/>
      <point x="235" y="-3"/>
      <point x="246" y="2"/>
      <point x="246" y="16" type="curve" smooth="yes"/>
      <point x="246" y="32"/>
      <point x="233" y="38"/>
      <point x="220" y="42" type="curve" smooth="yes"/>
      <point x="200" y="49"/>
      <point x="179" y="57"/>
      <point x="179" y="94" type="curve" smooth="yes"/>
      <point x="179" y="251" type="line" smooth="yes"/>
      <point x="179" y="277"/>
      <point x="187" y="294"/>
      <point x="207" y="304" type="curve" smooth="yes"/>
      <point x="234" y="319"/>
      <point x="264" y="324"/>
      <point x="301" y="324" type="curve" smooth="yes"/>
      <point x="347" y="324"/>
      <point x="386" y="290"/>
      <point x="386" y="254" type="curve" smooth="yes"/>
      <point x="386" y="94" type="line" smooth="yes"/>
      <point x="386" y="56"/>
      <point x="362" y="50"/>
      <point x="342" y="42" type="curve" smooth="yes"/>
      <point x="329" y="38"/>
      <point x="318" y="32"/>
      <point x="318" y="16" type="curve" smooth="yes"/>
      <point x="318" y="2"/>
      <point x="328" y="-3"/>
      <point x="340" y="-3" type="curve" smooth="yes"/>
      <point x="384" y="-3"/>
      <point x="392" y="2"/>
      <point x="430" y="2" type="curve" smooth="yes"/>
      <point x="469" y="2"/>
      <point x="476" y="-3"/>
      <point x="520" y="-3" type="curve" smooth="yes"/>
      <point x="534" y="-3"/>
      <point x="542" y="2"/>
      <point x="542" y="16" type="curve" smooth="yes"/>
      <point x="542" y="30"/>
      <point x="532" y="38"/>
      <point x="518" y="42" type="curve" smooth="yes"/>
      <point x="498" y="49"/>
      <point x="473" y="56"/>
      <point x="473" y="94" type="curve" smooth="yes"/>
      <point x="473" y="251" type="line" smooth="yes"/>
      <point x="473" y="277"/>
      <point x="483" y="294"/>
      <point x="503" y="304" type="curve" smooth="yes"/>
      <point x="529" y="319"/>
      <point x="559" y="324"/>
      <point x="595" y="324" type="curve" smooth="yes"/>
      <point x="641" y="324"/>
      <point x="681" y="290"/>
      <point x="681" y="254" type="curve" smooth="yes"/>
      <point x="681" y="94" type="line" smooth="yes"/>
      <point x="681" y="61"/>
      <point x="658" y="50"/>
      <point x="637" y="42" type="curve" smooth="yes"/>
      <point x="624" y="37"/>
      <point x="614" y="32"/>
      <point x="614" y="16" type="curve" smooth="yes"/>
      <point x="614" y="2"/>
      <point x="622" y="-3"/>
      <point x="635" y="-3" type="curve" smooth="yes"/>
      <point x="679" y="-3"/>
      <point x="688" y="2"/>
      <point x="726" y="2" type="curve" smooth="yes"/>
      <point x="764" y="2"/>
      <point x="769" y="-3"/>
      <point x="812" y="-3" type="curve" smooth="yes"/>
      <point x="829" y="-3"/>
      <point x="834" y="2"/>
      <point x="834" y="16" type="curve" smooth="yes"/>
      <point x="834" y="30"/>
      <point x="824" y="36"/>
      <point x="811" y="42" type="curve" smooth="yes"/>
      <point x="790" y="52"/>
      <point x="767" y="61"/>
      <point x="767" y="94" type="curve" smooth="yes"/>
      <point x="767" y="265" type="line" smooth="yes"/>
      <point x="767" y="335"/>
      <point x="728" y="404"/>
      <point x="656" y="404" type="curve" smooth="yes"/>
      <point x="583" y="404"/>
      <point x="522" y="374"/>
      <point x="474" y="336" type="curve"/>
      <point x="471" y="336" type="line"/>
      <point x="448" y="386"/>
      <point x="413" y="404"/>
      <point x="360" y="404" type="curve" smooth="yes"/>
      <point x="274" y="404"/>
      <point x="219" y="367"/>
      <point x="186" y="338" type="curve"/>
      <point x="184" y="338" type="line"/>
      <point x="183" y="339"/>
      <point x="182" y="344"/>
      <point x="182" y="350" type="curve" smooth="yes"/>
      <point x="182" y="368"/>
      <point x="187" y="397"/>
      <point x="187" y="406" type="curve" smooth="yes"/>
      <point x="187" y="413"/>
      <point x="181" y="420"/>
      <point x="173" y="420" type="curve" smooth="yes"/>
      <point x="165" y="420"/>
      <point x="158" y="416"/>
      <point x="150" y="410" type="curve" smooth="yes"/>
      <point x="123" y="395"/>
      <point x="101" y="382"/>
      <point x="60" y="372" type="curve" smooth="yes"/>
      <point x="50" y="369"/>
      <point x="44" y="360"/>
      <point x="44" y="352" type="curve" smooth="yes"/>
      <point x="44" y="344"/>
      <point x="47" y="336"/>
      <point x="57" y="334" type="curve" smooth="yes"/>
      <point x="87" y="326"/>
      <point x="92" y="297"/>
      <point x="92" y="256" type="curve" smooth="yes"/>
      <point x="92" y="94" type="line" smooth="yes"/>
      <point x="92" y="57"/>
      <point x="71" y="49"/>
      <point x="51" y="42" type="curve" smooth="yes"/>
      <point x="37" y="38"/>
      <point x="25" y="31"/>
      <point x="25" y="16" type="curve" smooth="yes"/>
      <point x="25" y="0"/>
      <point x="38" y="-3"/>
    </contour>
  </outline>
</glyph>
<glyph name="n" format="1">
  <advance width="584"/>
  <unicode hex="006E"/>
  <outline>
    <contour>
      <point x="47" y="-3" type="curve" smooth="yes"/>
      <point x="91" y="-3"/>
      <point x="97" y="6"/>
      <point x="135" y="6" type="curve" smooth="yes"/>
      <point x="174" y="6"/>
      <point x="180" y="-3"/>
      <point x="224" y="-3" type="curve" smooth="yes"/>
      <point x="238" y="-3"/>
      <point x="246" y="2"/>
      <point x="246" y="16" type="curve" smooth="yes"/>
      <point x="246" y="30"/>
      <point x="238" y="36"/>
      <point x="222" y="43" type="curve" smooth="yes"/>
      <point x="202" y="50"/>
      <point x="179" y="58"/>
      <point x="179" y="93" type="curve" smooth="yes"/>
      <point x="179" y="260" type="line" smooth="yes"/>
      <point x="179" y="268"/>
      <point x="182" y="278"/>
      <point x="187" y="283" type="curve" smooth="yes"/>
      <point x="216" y="309"/>
      <point x="256" y="324"/>
      <point x="308" y="324" type="curve" smooth="yes"/>
      <point x="367" y="323"/>
      <point x="406" y="287"/>
      <point x="406" y="229" type="curve" smooth="yes"/>
      <point x="406" y="93" type="line" smooth="yes"/>
      <point x="406" y="58"/>
      <point x="383" y="51"/>
      <point x="362" y="43" type="curve" smooth="yes"/>
      <point x="351" y="36"/>
      <point x="339" y="30"/>
      <point x="339" y="12" type="curve" smooth="yes"/>
      <point x="339" y="-1"/>
      <point x="353" y="-3"/>
      <point x="361" y="-3" type="curve" smooth="yes"/>
      <point x="405" y="-3"/>
      <point x="412" y="6"/>
      <point x="450" y="6" type="curve" smooth="yes"/>
      <point x="489" y="6"/>
      <point x="494" y="-3"/>
      <point x="538" y="-3" type="curve" smooth="yes"/>
      <point x="547" y="-3"/>
      <point x="560" y="-1"/>
      <point x="560" y="12" type="curve" smooth="yes"/>
      <point x="560" y="30"/>
      <point x="548" y="36"/>
      <point x="536" y="43" type="curve"/>
      <point x="516" y="51"/>
      <point x="493" y="58"/>
      <point x="493" y="93" type="curve" smooth="yes"/>
      <point x="493" y="232" type="line" smooth="yes"/>
      <point x="493" y="329"/>
      <point x="438" y="404"/>
      <point x="365" y="404" type="curve" smooth="yes"/>
      <point x="294" y="404"/>
      <point x="236" y="382"/>
      <point x="184" y="335" type="curve"/>
      <point x="183" y="335"/>
      <point x="182" y="348"/>
      <point x="182" y="358" type="curve" smooth="yes"/>
      <point x="182" y="376"/>
      <point x="187" y="401"/>
      <point x="187" y="412" type="curve" smooth="yes"/>
      <point x="187" y="416"/>
      <point x="185" y="420"/>
      <point x="182" y="420" type="curve" smooth="yes"/>
      <point x="177" y="420"/>
      <point x="174" y="418"/>
      <point x="170" y="416" type="curve" smooth="yes"/>
      <point x="140" y="398"/>
      <point x="111" y="384"/>
      <point x="62" y="374" type="curve" smooth="yes"/>
      <point x="50" y="371"/>
      <point x="44" y="365"/>
      <point x="44" y="353" type="curve" smooth="yes"/>
      <point x="44" y="339"/>
      <point x="52" y="334"/>
      <point x="63" y="331" type="curve" smooth="yes"/>
      <point x="89" y="323"/>
      <point x="92" y="300"/>
      <point x="92" y="267" type="curve" smooth="yes"/>
      <point x="92" y="93" type="line" smooth="yes"/>
      <point x="92" y="58"/>
      <point x="69" y="50"/>
      <point x="48" y="43" type="curve" smooth="yes"/>
      <point x="33" y="36"/>
      <point x="25" y="33"/>
      <point x="25" y="16" type="curve" smooth="yes"/>
      <point x="25" y="2"/>
      <point x="34" y="-3"/>
    </contour>
  </outline>
</glyph>
<glyph name="p" format="1">
  <advance width="574"/>
  <unicode hex="0070"/>
  <outline>
    <contour>
      <point x="42" y="-345" type="curve" smooth="yes"/>
      <point x="85" y="-345"/>
      <point x="92" y="-340"/>
      <point x="130" y="-340" type="curve" smooth="yes"/>
      <point x="168" y="-340"/>
      <point x="189" y="-345"/>
      <point x="233" y="-345" type="curve" smooth="yes"/>
      <point x="245" y="-345"/>
      <point x="255" y="-339"/>
      <point x="255" y="-322" type="curve" smooth="yes"/>
      <point x="255" y="-314"/>
      <point x="247" y="-307"/>
      <point x="232" y="-302" type="curve"/>
      <point x="211" y="-297"/>
      <point x="174" y="-290"/>
      <point x="174" y="-252" type="curve" smooth="yes"/>
      <point x="174" y="-33" type="line" smooth="yes"/>
      <point x="174" y="-27"/>
      <point x="175" y="18"/>
      <point x="178" y="18" type="curve"/>
      <point x="200" y="0"/>
      <point x="257" y="-14"/>
      <point x="288" y="-14" type="curve" smooth="yes"/>
      <point x="428" y="-14"/>
      <point x="537" y="103"/>
      <point x="537" y="219" type="curve" smooth="yes"/>
      <point x="537" y="311"/>
      <point x="470" y="404"/>
      <point x="356" y="404" type="curve" smooth="yes"/>
      <point x="286" y="404"/>
      <point x="198" y="359"/>
      <point x="177" y="340" type="curve"/>
      <point x="176" y="341"/>
      <point x="176" y="345"/>
      <point x="176" y="349" type="curve" smooth="yes"/>
      <point x="176" y="365"/>
      <point x="181" y="396"/>
      <point x="181" y="407" type="curve" smooth="yes"/>
      <point x="181" y="411"/>
      <point x="178" y="416"/>
      <point x="175" y="416" type="curve" smooth="yes"/>
      <point x="174" y="416"/>
      <point x="174" y="415"/>
      <point x="172" y="415" type="curve"/>
      <point x="139" y="404"/>
      <point x="102" y="395"/>
      <point x="50" y="384" type="curve" smooth="yes"/>
      <point x="40" y="382"/>
      <point x="32" y="374"/>
      <point x="32" y="364" type="curve" smooth="yes"/>
      <point x="32" y="353"/>
      <point x="40" y="344"/>
      <point x="51" y="341" type="curve" smooth="yes"/>
      <point x="77" y="334"/>
      <point x="87" y="291"/>
      <point x="87" y="277" type="curve" smooth="yes"/>
      <point x="87" y="-252" type="line" smooth="yes"/>
      <point x="87" y="-282"/>
      <point x="65" y="-294"/>
      <point x="43" y="-302" type="curve"/>
      <point x="31" y="-307"/>
      <point x="20" y="-314"/>
      <point x="20" y="-322" type="curve" smooth="yes"/>
      <point x="20" y="-339"/>
      <point x="29" y="-345"/>
    </contour>
    <contour>
      <point x="302" y="39" type="curve" smooth="yes"/>
      <point x="226" y="39"/>
      <point x="174" y="80"/>
      <point x="174" y="163" type="curve" smooth="yes"/>
      <point x="174" y="183"/>
      <point x="177" y="240"/>
      <point x="177" y="288" type="curve" smooth="yes"/>
      <point x="177" y="301"/>
      <point x="242" y="332"/>
      <point x="295" y="332" type="curve" smooth="yes"/>
      <point x="368" y="332"/>
      <point x="441" y="300"/>
      <point x="441" y="185" type="curve" smooth="yes"/>
      <point x="441" y="76"/>
      <point x="348" y="39"/>
    </contour>
  </outline>
</glyph>
<glyph name="r" format="1">
  <advance width="365"/>
  <unicode hex="0072"/>
  <outline>
    <contour>
      <point x="52" y="-3" type="curve" smooth="yes"/>
      <point x="96" y="-3"/>
      <point x="102" y="2"/>
      <point x="141" y="2" type="curve" smooth="yes"/>
      <point x="178" y="2"/>
      <point x="191" y="-3"/>
      <point x="235" y="-3" type="curve" smooth="yes"/>
      <point x="250" y="-3"/>
      <point x="257" y="1"/>
      <point x="257" y="14" type="curve" smooth="yes"/>
      <point x="257" y="28"/>
      <point x="248" y="33"/>
      <point x="234" y="39" type="curve" smooth="yes"/>
      <point x="192" y="58"/>
      <point x="180" y="63"/>
      <point x="180" y="97" type="curve" smooth="yes"/>
      <point x="180" y="210" type="line" smooth="yes"/>
      <point x="180" y="292"/>
      <point x="215" y="318"/>
      <point x="255" y="318" type="curve" smooth="yes"/>
      <point x="265" y="318"/>
      <point x="277" y="312"/>
      <point x="289" y="307" type="curve" smooth="yes"/>
      <point x="300" y="300"/>
      <point x="311" y="295"/>
      <point x="319" y="295" type="curve" smooth="yes"/>
      <point x="341" y="295"/>
      <point x="360" y="336"/>
      <point x="360" y="362" type="curve" smooth="yes"/>
      <point x="360" y="385"/>
      <point x="338" y="403"/>
      <point x="308" y="403" type="curve" smooth="yes"/>
      <point x="266" y="403"/>
      <point x="219" y="374"/>
      <point x="185" y="335" type="curve"/>
      <point x="184" y="335"/>
      <point x="183" y="336"/>
      <point x="183" y="337" type="curve"/>
      <point x="185" y="369"/>
      <point x="186" y="405"/>
      <point x="186" y="412" type="curve"/>
      <point x="186" y="416"/>
      <point x="184" y="419"/>
      <point x="181" y="419" type="curve" smooth="yes"/>
      <point x="177" y="419"/>
      <point x="173" y="417"/>
      <point x="164" y="412" type="curve" smooth="yes"/>
      <point x="140" y="399"/>
      <point x="101" y="382"/>
      <point x="56" y="371" type="curve" smooth="yes"/>
      <point x="47" y="368"/>
      <point x="41" y="358"/>
      <point x="41" y="351" type="curve" smooth="yes"/>
      <point x="41" y="344"/>
      <point x="46" y="334"/>
      <point x="54" y="332" type="curve" smooth="yes"/>
      <point x="91" y="323"/>
      <point x="93" y="298"/>
      <point x="93" y="255" type="curve" smooth="yes"/>
      <point x="93" y="93" type="line" smooth="yes"/>
      <point x="93" y="69"/>
      <point x="79" y="52"/>
      <point x="54" y="45" type="curve" smooth="yes"/>
      <point x="38" y="37"/>
      <point x="30" y="34"/>
      <point x="30" y="17" type="curve" smooth="yes"/>
      <point x="30" y="2"/>
      <point x="37" y="-3"/>
    </contour>
  </outline>
</glyph>
<glyph name="s" format="1">
  <advance width="357"/>
  <unicode hex="0073"/>
  <outline>
    <contour>
      <point x="158" y="-14" type="curve" smooth="yes"/>
      <point x="257" y="-14"/>
      <point x="323" y="35"/>
      <point x="323" y="105" type="curve" smooth="yes"/>
      <point x="323" y="166"/>
      <point x="283" y="197"/>
      <point x="203" y="239" type="curve" smooth="yes"/>
      <point x="152" y="268"/>
      <point x="139" y="281"/>
      <point x="139" y="307" type="curve" smooth="yes"/>
      <point x="139" y="337"/>
      <point x="165" y="354"/>
      <point x="199" y="354" type="curve" smooth="yes"/>
      <point x="241" y="354"/>
      <point x="260" y="335"/>
      <point x="277" y="299" type="curve" smooth="yes"/>
      <point x="280" y="294"/>
      <point x="287" y="289"/>
      <point x="299" y="289" type="curve" smooth="yes"/>
      <point x="307" y="289"/>
      <point x="313" y="294"/>
      <point x="313" y="299" type="curve" smooth="yes"/>
      <point x="313" y="329"/>
      <point x="304" y="371"/>
      <point x="293" y="385" type="curve"/>
      <point x="279" y="395"/>
      <point x="247" y="404"/>
      <point x="202" y="404" type="curve" smooth="yes"/>
      <point x="98" y="404"/>
      <point x="49" y="354"/>
      <point x="49" y="291" type="curve" smooth="yes"/>
      <point x="49" y="242"/>
      <point x="75" y="209"/>
      <point x="149" y="169" type="curve" smooth="yes"/>
      <point x="209" y="138"/>
      <point x="228" y="117"/>
      <point x="228" y="88" type="curve" smooth="yes"/>
      <point x="228" y="57"/>
      <point x="200" y="39"/>
      <point x="159" y="39" type="curve" smooth="yes"/>
      <point x="115" y="39"/>
      <point x="81" y="53"/>
      <point x="68" y="104" type="curve"/>
      <point x="65" y="116"/>
      <point x="56" y="118"/>
      <point x="49" y="118" type="curve" smooth="yes"/>
      <point x="39" y="118"/>
      <point x="30" y="115"/>
      <point x="30" y="105" type="curve"/>
      <point x="31" y="77"/>
      <point x="34" y="35"/>
      <point x="41" y="21" type="curve"/>
      <point x="69" y="-1"/>
      <point x="112" y="-14"/>
    </contour>
  </outline>
</glyph>
<glyph name="v" format="1">
  <advance width="475"/>
  <unicode hex="0076"/>
  <outline>
    <contour>
      <point x="223" y="-21" type="curve"/>
      <point x="261" y="-21" type="line"/>
      <point x="391" y="291" type="line"/>
      <point x="404" y="322"/>
      <point x="437" y="342"/>
      <point x="456" y="350" type="curve" smooth="yes"/>
      <point x="474" y="357"/>
      <point x="480" y="364"/>
      <point x="480" y="380" type="curve" smooth="yes"/>
      <point x="480" y="393"/>
      <point x="470" y="395"/>
      <point x="460" y="395" type="curve" smooth="yes"/>
      <point x="440" y="395"/>
      <point x="435" y="390"/>
      <point x="398" y="390" type="curve" smooth="yes"/>
      <point x="362" y="390"/>
      <point x="338" y="395"/>
      <point x="323" y="395" type="curve" smooth="yes"/>
      <point x="314" y="395"/>
      <point x="302" y="393"/>
      <point x="302" y="380" type="curve" smooth="yes"/>
      <point x="302" y="364"/>
      <point x="306" y="361"/>
      <point x="324" y="351" type="curve" smooth="yes"/>
      <point x="335" y="346"/>
      <point x="340" y="339"/>
      <point x="340" y="321" type="curve" smooth="yes"/>
      <point x="340" y="312"/>
      <point x="337" y="299"/>
      <point x="333" y="287" type="curve" smooth="yes"/>
      <point x="257" y="112" type="line"/>
      <point x="256" y="111"/>
      <point x="255" y="111"/>
      <point x="254" y="112" type="curve"/>
      <point x="182" y="286" type="line" smooth="yes"/>
      <point x="178" y="294"/>
      <point x="177" y="304"/>
      <point x="177" y="313" type="curve" smooth="yes"/>
      <point x="177" y="330"/>
      <point x="182" y="345"/>
      <point x="194" y="350" type="curve" smooth="yes"/>
      <point x="205" y="356"/>
      <point x="216" y="363"/>
      <point x="216" y="379" type="curve" smooth="yes"/>
      <point x="216" y="393"/>
      <point x="202" y="395"/>
      <point x="194" y="395" type="curve" smooth="yes"/>
      <point x="150" y="395"/>
      <point x="149" y="389"/>
      <point x="110" y="389" type="curve" smooth="yes"/>
      <point x="70" y="389"/>
      <point x="71" y="395"/>
      <point x="28" y="395" type="curve" smooth="yes"/>
      <point x="20" y="395"/>
      <point x="5" y="393"/>
      <point x="5" y="380" type="curve" smooth="yes"/>
      <point x="5" y="364"/>
      <point x="13" y="361"/>
      <point x="29" y="355" type="curve" smooth="yes"/>
      <point x="49" y="348"/>
      <point x="70" y="332"/>
      <point x="86" y="298" type="curve" smooth="yes"/>
      <point x="119" y="219"/>
      <point x="146" y="165"/>
      <point x="178" y="84" type="curve" smooth="yes"/>
      <point x="186" y="63"/>
      <point x="195" y="38"/>
      <point x="204" y="16" type="curve" smooth="yes"/>
      <point x="207" y="7"/>
      <point x="218" y="-30"/>
    </contour>
  </outline>
</glyph>
<glyph name="w" format="1">
  <advance width="751"/>
  <unicode hex="0077"/>
  <outline>
    <contour>
      <point x="245" y="-23" type="curve" smooth="yes"/>
      <point x="253" y="-23"/>
      <point x="260" y="-20"/>
      <point x="265" y="-16" type="curve"/>
      <point x="377" y="231" type="line" smooth="yes"/>
      <point x="380" y="238"/>
      <point x="382" y="241"/>
      <point x="384" y="241" type="curve" smooth="yes"/>
      <point x="386" y="241"/>
      <point x="389" y="237"/>
      <point x="391" y="232" type="curve" smooth="yes"/>
      <point x="498" y="-16" type="line"/>
      <point x="502" y="-20"/>
      <point x="509" y="-23"/>
      <point x="515" y="-23" type="curve" smooth="yes"/>
      <point x="523" y="-23"/>
      <point x="530" y="-20"/>
      <point x="534" y="-16" type="curve"/>
      <point x="672" y="291" type="line" smooth="yes"/>
      <point x="685" y="321"/>
      <point x="712" y="341"/>
      <point x="732" y="350" type="curve"/>
      <point x="748" y="357"/>
      <point x="756" y="364"/>
      <point x="756" y="380" type="curve" smooth="yes"/>
      <point x="756" y="393"/>
      <point x="745" y="395"/>
      <point x="735" y="395" type="curve" smooth="yes"/>
      <point x="714" y="395"/>
      <point x="710" y="390"/>
      <point x="673" y="390" type="curve" smooth="yes"/>
      <point x="638" y="390"/>
      <point x="618" y="395"/>
      <point x="598" y="395" type="curve" smooth="yes"/>
      <point x="589" y="395"/>
      <point x="577" y="393"/>
      <point x="577" y="380" type="curve" smooth="yes"/>
      <point x="577" y="364"/>
      <point x="583" y="360"/>
      <point x="599" y="351" type="curve" smooth="yes"/>
      <point x="611" y="346"/>
      <point x="619" y="337"/>
      <point x="619" y="319" type="curve" smooth="yes"/>
      <point x="619" y="310"/>
      <point x="615" y="297"/>
      <point x="610" y="285" type="curve" smooth="yes"/>
      <point x="542" y="132" type="line" smooth="yes"/>
      <point x="539" y="125"/>
      <point x="536" y="122"/>
      <point x="533" y="122" type="curve" smooth="yes"/>
      <point x="531" y="122"/>
      <point x="528" y="126"/>
      <point x="525" y="133" type="curve" smooth="yes"/>
      <point x="464" y="269" type="line" smooth="yes"/>
      <point x="459" y="282"/>
      <point x="455" y="292"/>
      <point x="455" y="300" type="curve" smooth="yes"/>
      <point x="455" y="330"/>
      <point x="468" y="340"/>
      <point x="488" y="350" type="curve" smooth="yes"/>
      <point x="499" y="354"/>
      <point x="508" y="360"/>
      <point x="508" y="376" type="curve" smooth="yes"/>
      <point x="508" y="390"/>
      <point x="498" y="394"/>
      <point x="485" y="394" type="curve" smooth="yes"/>
      <point x="447" y="394"/>
      <point x="433" y="386"/>
      <point x="392" y="389" type="curve" smooth="yes"/>
      <point x="350" y="393"/>
      <point x="339" y="394"/>
      <point x="302" y="394" type="curve" smooth="yes"/>
      <point x="290" y="394"/>
      <point x="279" y="390"/>
      <point x="279" y="376" type="curve" smooth="yes"/>
      <point x="279" y="364"/>
      <point x="291" y="359"/>
      <point x="301" y="355" type="curve" smooth="yes"/>
      <point x="326" y="345"/>
      <point x="345" y="338"/>
      <point x="345" y="312" type="curve" smooth="yes"/>
      <point x="345" y="300"/>
      <point x="344" y="288"/>
      <point x="338" y="273" type="curve" smooth="yes"/>
      <point x="270" y="121" type="line" smooth="yes"/>
      <point x="269" y="118"/>
      <point x="267" y="117"/>
      <point x="265" y="117" type="curve" smooth="yes"/>
      <point x="263" y="117"/>
      <point x="261" y="119"/>
      <point x="260" y="121" type="curve" smooth="yes"/>
      <point x="191" y="286" type="line" smooth="yes"/>
      <point x="188" y="294"/>
      <point x="186" y="304"/>
      <point x="186" y="313" type="curve" smooth="yes"/>
      <point x="186" y="330"/>
      <point x="191" y="345"/>
      <point x="201" y="350" type="curve"/>
      <point x="211" y="356"/>
      <point x="223" y="363"/>
      <point x="223" y="380" type="curve" smooth="yes"/>
      <point x="223" y="393"/>
      <point x="207" y="395"/>
      <point x="200" y="395" type="curve" smooth="yes"/>
      <point x="160" y="395"/>
      <point x="149" y="389"/>
      <point x="113" y="389" type="curve" smooth="yes"/>
      <point x="77" y="389"/>
      <point x="71" y="395"/>
      <point x="32" y="395" type="curve" smooth="yes"/>
      <point x="24" y="395"/>
      <point x="10" y="393"/>
      <point x="10" y="380" type="curve" smooth="yes"/>
      <point x="10" y="364"/>
      <point x="18" y="361"/>
      <point x="35" y="355" type="curve"/>
      <point x="54" y="348"/>
      <point x="77" y="331"/>
      <point x="91" y="298" type="curve" smooth="yes"/>
      <point x="227" y="-16" type="line"/>
      <point x="230" y="-20"/>
      <point x="237" y="-23"/>
    </contour>
  </outline>
</glyph>
<glyph name="x" format="1">
  <advance width="468"/>
  <unicode hex="0078"/>
  <outline>
    <contour>
      <point x="102" y="2" type="curve" smooth="yes"/>
      <point x="119" y="2"/>
      <point x="146" y="-2"/>
      <point x="157" y="-2" type="curve" smooth="yes"/>
      <point x="163" y="-2"/>
      <point x="182" y="0"/>
      <point x="182" y="18" type="curve" smooth="yes"/>
      <point x="182" y="34"/>
      <point x="173" y="39"/>
      <point x="162" y="42" type="curve"/>
      <point x="155" y="45"/>
      <point x="150" y="52"/>
      <point x="150" y="59" type="curve" smooth="yes"/>
      <point x="150" y="67"/>
      <point x="157" y="75"/>
      <point x="163" y="84" type="curve" smooth="yes"/>
      <point x="216" y="158" type="line" smooth="yes"/>
      <point x="219" y="161"/>
      <point x="222" y="162"/>
      <point x="225" y="158" type="curve" smooth="yes"/>
      <point x="275" y="82" type="line" smooth="yes"/>
      <point x="279" y="75"/>
      <point x="282" y="69"/>
      <point x="282" y="64" type="curve" smooth="yes"/>
      <point x="282" y="53"/>
      <point x="271" y="47"/>
      <point x="261" y="44" type="curve" smooth="yes"/>
      <point x="245" y="37"/>
      <point x="237" y="33"/>
      <point x="237" y="16" type="curve" smooth="yes"/>
      <point x="237" y="3"/>
      <point x="245" y="-3"/>
      <point x="261" y="-3" type="curve" smooth="yes"/>
      <point x="299" y="-3"/>
      <point x="314" y="5"/>
      <point x="349" y="5" type="curve" smooth="yes"/>
      <point x="394" y="5"/>
      <point x="396" y="-3"/>
      <point x="441" y="-3" type="curve" smooth="yes"/>
      <point x="454" y="-3"/>
      <point x="464" y="1"/>
      <point x="464" y="15" type="curve" smooth="yes"/>
      <point x="464" y="30"/>
      <point x="455" y="37"/>
      <point x="438" y="42" type="curve" smooth="yes"/>
      <point x="413" y="50"/>
      <point x="393" y="56"/>
      <point x="374" y="84" type="curve" smooth="yes"/>
      <point x="295" y="201" type="line" smooth="yes"/>
      <point x="291" y="206"/>
      <point x="291" y="211"/>
      <point x="293" y="214" type="curve" smooth="yes"/>
      <point x="359" y="309" type="line" smooth="yes"/>
      <point x="378" y="337"/>
      <point x="408" y="350"/>
      <point x="425" y="356" type="curve"/>
      <point x="437" y="361"/>
      <point x="448" y="367"/>
      <point x="448" y="383" type="curve" smooth="yes"/>
      <point x="448" y="395"/>
      <point x="435" y="397"/>
      <point x="426" y="397" type="curve" smooth="yes"/>
      <point x="408" y="397"/>
      <point x="399" y="389"/>
      <point x="359" y="389" type="curve" smooth="yes"/>
      <point x="341" y="389"/>
      <point x="315" y="394"/>
      <point x="305" y="394" type="curve" smooth="yes"/>
      <point x="299" y="394"/>
      <point x="279" y="391"/>
      <point x="279" y="373" type="curve" smooth="yes"/>
      <point x="279" y="357"/>
      <point x="288" y="353"/>
      <point x="299" y="349" type="curve"/>
      <point x="306" y="347"/>
      <point x="311" y="340"/>
      <point x="311" y="333" type="curve" smooth="yes"/>
      <point x="311" y="327"/>
      <point x="304" y="318"/>
      <point x="298" y="308" type="curve"/>
      <point x="260" y="256" type="line" smooth="yes"/>
      <point x="256" y="252"/>
      <point x="253" y="251"/>
      <point x="250" y="256" type="curve" smooth="yes"/>
      <point x="213" y="308" type="line"/>
      <point x="206" y="317"/>
      <point x="203" y="324"/>
      <point x="203" y="330" type="curve" smooth="yes"/>
      <point x="203" y="341"/>
      <point x="213" y="346"/>
      <point x="222" y="349" type="curve" smooth="yes"/>
      <point x="237" y="354"/>
      <point x="244" y="359"/>
      <point x="244" y="375" type="curve" smooth="yes"/>
      <point x="244" y="389"/>
      <point x="231" y="393"/>
      <point x="220" y="393" type="curve" smooth="yes"/>
      <point x="182" y="393"/>
      <point x="176" y="386"/>
      <point x="141" y="386" type="curve" smooth="yes"/>
      <point x="95" y="386"/>
      <point x="95" y="394"/>
      <point x="50" y="394" type="curve" smooth="yes"/>
      <point x="38" y="394"/>
      <point x="26" y="390"/>
      <point x="26" y="376" type="curve" smooth="yes"/>
      <point x="26" y="361"/>
      <point x="35" y="354"/>
      <point x="52" y="349" type="curve" smooth="yes"/>
      <point x="76" y="341"/>
      <point x="95" y="334"/>
      <point x="114" y="307" type="curve" smooth="yes"/>
      <point x="180" y="214" type="line" smooth="yes"/>
      <point x="183" y="209"/>
      <point x="184" y="204"/>
      <point x="180" y="200" type="curve"/>
      <point x="100" y="85" type="line" smooth="yes"/>
      <point x="77" y="54"/>
      <point x="51" y="42"/>
      <point x="34" y="35" type="curve" smooth="yes"/>
      <point x="22" y="30"/>
      <point x="10" y="24"/>
      <point x="10" y="8" type="curve" smooth="yes"/>
      <point x="10" y="-4"/>
      <point x="24" y="-6"/>
      <point x="32" y="-6" type="curve" smooth="yes"/>
      <point x="51" y="-6"/>
      <point x="62" y="2"/>
    </contour>
  </outline>
</glyph>
<glyph name="y" format="1">
  <advance width="475"/>
  <unicode hex="0079"/>
  <outline>
    <contour>
      <point x="70" y="-350" type="curve" smooth="yes"/>
      <point x="103" y="-350"/>
      <point x="129" y="-335"/>
      <point x="142" y="-307" type="curve"/>
      <point x="391" y="291" type="line"/>
      <point x="404" y="322"/>
      <point x="436" y="342"/>
      <point x="456" y="350" type="curve"/>
      <point x="474" y="357"/>
      <point x="480" y="364"/>
      <point x="480" y="380" type="curve" smooth="yes"/>
      <point x="480" y="393"/>
      <point x="469" y="395"/>
      <point x="459" y="395" type="curve" smooth="yes"/>
      <point x="439" y="395"/>
      <point x="435" y="390"/>
      <point x="398" y="390" type="curve" smooth="yes"/>
      <point x="362" y="390"/>
      <point x="339" y="395"/>
      <point x="323" y="395" type="curve" smooth="yes"/>
      <point x="314" y="395"/>
      <point x="302" y="393"/>
      <point x="302" y="379" type="curve" smooth="yes"/>
      <point x="302" y="364"/>
      <point x="308" y="360"/>
      <point x="325" y="350" type="curve" smooth="yes"/>
      <point x="335" y="345"/>
      <point x="340" y="338"/>
      <point x="340" y="320" type="curve" smooth="yes"/>
      <point x="340" y="311"/>
      <point x="337" y="298"/>
      <point x="333" y="287" type="curve"/>
      <point x="261" y="117" type="line" smooth="yes"/>
      <point x="260" y="114"/>
      <point x="259" y="113"/>
      <point x="258" y="113" type="curve" smooth="yes"/>
      <point x="257" y="113"/>
      <point x="255" y="114"/>
      <point x="254" y="117" type="curve" smooth="yes"/>
      <point x="182" y="286" type="line" smooth="yes"/>
      <point x="178" y="295"/>
      <point x="177" y="304"/>
      <point x="177" y="313" type="curve" smooth="yes"/>
      <point x="177" y="330"/>
      <point x="182" y="344"/>
      <point x="193" y="350" type="curve" smooth="yes"/>
      <point x="204" y="355"/>
      <point x="216" y="362"/>
      <point x="216" y="379" type="curve" smooth="yes"/>
      <point x="216" y="393"/>
      <point x="202" y="395"/>
      <point x="194" y="395" type="curve" smooth="yes"/>
      <point x="150" y="395"/>
      <point x="149" y="389"/>
      <point x="110" y="389" type="curve" smooth="yes"/>
      <point x="70" y="389"/>
      <point x="71" y="395"/>
      <point x="27" y="395" type="curve" smooth="yes"/>
      <point x="20" y="395"/>
      <point x="5" y="393"/>
      <point x="5" y="380" type="curve" smooth="yes"/>
      <point x="5" y="364"/>
      <point x="13" y="361"/>
      <point x="30" y="355" type="curve"/>
      <point x="49" y="348"/>
      <point x="72" y="331"/>
      <point x="86" y="298" type="curve" smooth="yes"/>
      <point x="211" y="21" type="line" smooth="yes"/>
      <point x="214" y="13"/>
      <point x="216" y="3"/>
      <point x="216" y="-7" type="curve" smooth="yes"/>
      <point x="216" y="-16"/>
      <point x="214" y="-24"/>
      <point x="211" y="-31" type="curve" smooth="yes"/>
      <point x="123" y="-245" type="line" smooth="yes"/>
      <point x="115" y="-260"/>
      <point x="101" y="-264"/>
      <point x="92" y="-264" type="curve" smooth="yes"/>
      <point x="80" y="-264"/>
      <point x="65" y="-254"/>
      <point x="45" y="-254" type="curve" smooth="yes"/>
      <point x="20" y="-254"/>
      <point x="6" y="-275"/>
      <point x="6" y="-304" type="curve" smooth="yes"/>
      <point x="6" y="-336"/>
      <point x="39" y="-350"/>
    </contour>
  </outline>
</glyph>
<glyph name="z" format="1">
  <advance width="414"/>
  <unicode hex="007A"/>
  <outline>
    <contour>
      <point x="42" y="-5" type="curve" smooth="yes"/>
      <point x="61" y="-5"/>
      <point x="98" y="0"/>
      <point x="129" y="0" type="curve" smooth="yes"/>
      <point x="251" y="0"/>
      <point x="330" y="-5"/>
      <point x="363" y="-5" type="curve" smooth="yes"/>
      <point x="371" y="-5"/>
      <point x="377" y="0"/>
      <point x="379" y="9" type="curve" smooth="yes"/>
      <point x="385" y="25"/>
      <point x="410" y="129"/>
      <point x="410" y="137" type="curve" smooth="yes"/>
      <point x="410" y="156"/>
      <point x="387" y="157"/>
      <point x="378" y="144" type="curve" smooth="yes"/>
      <point x="359" y="116"/>
      <point x="343" y="93"/>
      <point x="327" y="76" type="curve" smooth="yes"/>
      <point x="313" y="60"/>
      <point x="297" y="54"/>
      <point x="281" y="54" type="curve" smooth="yes"/>
      <point x="171" y="54" type="line" smooth="yes"/>
      <point x="161" y="54"/>
      <point x="154" y="59"/>
      <point x="161" y="69" type="curve" smooth="yes"/>
      <point x="349" y="320" type="line" smooth="yes"/>
      <point x="363" y="339"/>
      <point x="379" y="353"/>
      <point x="393" y="369" type="curve"/>
      <point x="400" y="378"/>
      <point x="393" y="396"/>
      <point x="379" y="396" type="curve" smooth="yes"/>
      <point x="318" y="392"/>
      <point x="255" y="393"/>
      <point x="178" y="393" type="curve" smooth="yes"/>
      <point x="168" y="393"/>
      <point x="153" y="392"/>
      <point x="136" y="392" type="curve" smooth="yes"/>
      <point x="116" y="392"/>
      <point x="95" y="393"/>
      <point x="88" y="398" type="curve" smooth="yes"/>
      <point x="81" y="403"/>
      <point x="75" y="407"/>
      <point x="71" y="407" type="curve" smooth="yes"/>
      <point x="67" y="407"/>
      <point x="55" y="399"/>
      <point x="55" y="389" type="curve" smooth="yes"/>
      <point x="55" y="364"/>
      <point x="39" y="303"/>
      <point x="33" y="285" type="curve" smooth="yes"/>
      <point x="25" y="263"/>
      <point x="55" y="258"/>
      <point x="71" y="274" type="curve" smooth="yes"/>
      <point x="83" y="291"/>
      <point x="99" y="311"/>
      <point x="113" y="325" type="curve" smooth="yes"/>
      <point x="121" y="332"/>
      <point x="137" y="343"/>
      <point x="155" y="342" type="curve" smooth="yes"/>
      <point x="245" y="339" type="line" smooth="yes"/>
      <point x="261" y="339"/>
      <point x="257" y="333"/>
      <point x="254" y="329" type="curve"/>
      <point x="191" y="243"/>
      <point x="132" y="164"/>
      <point x="68" y="83" type="curve" smooth="yes"/>
      <point x="50" y="60"/>
      <point x="23" y="25"/>
      <point x="23" y="22" type="curve" smooth="yes"/>
      <point x="23" y="11"/>
      <point x="32" y="-5"/>
    </contour>
  </outline>
</glyph>
<glyph name="braceleft" format="1">
  <advance width="398"/>
  <unicode hex="007B"/>
  <outline>
    <contour>
      <point x="344" y="-152" type="curve" smooth="yes"/>
      <point x="366" y="-152"/>
      <point x="376" y="-140"/>
      <point x="376" y="-124" type="curve" smooth="yes"/>
      <point x="376" y="-106"/>
      <point x="360" y="-98"/>
      <point x="338" y="-96" type="curve" smooth="yes"/>
      <point x="279" y="-90"/>
      <point x="240" y="-78"/>
      <point x="240" y="-10" type="curve" smooth="yes"/>
      <point x="240" y="55"/>
      <point x="253" y="100"/>
      <point x="253" y="155" type="curve" smooth="yes"/>
      <point x="253" y="218"/>
      <point x="200" y="270"/>
      <point x="136" y="280" type="curve"/>
      <point x="133" y="281"/>
      <point x="130" y="282"/>
      <point x="134" y="284" type="curve"/>
      <point x="201" y="296"/>
      <point x="253" y="345"/>
      <point x="253" y="408" type="curve" smooth="yes"/>
      <point x="253" y="463"/>
      <point x="240" y="508"/>
      <point x="240" y="572" type="curve" smooth="yes"/>
      <point x="240" y="640"/>
      <point x="279" y="652"/>
      <point x="338" y="658" type="curve" smooth="yes"/>
      <point x="360" y="661"/>
      <point x="377" y="669"/>
      <point x="377" y="687" type="curve" smooth="yes"/>
      <point x="377" y="702"/>
      <point x="367" y="715"/>
      <point x="345" y="714" type="curve" smooth="yes"/>
      <point x="249" y="711"/>
      <point x="146" y="678"/>
      <point x="146" y="582" type="curve" smooth="yes"/>
      <point x="146" y="512"/>
      <point x="160" y="466"/>
      <point x="160" y="405" type="curve" smooth="yes"/>
      <point x="160" y="347"/>
      <point x="130" y="327"/>
      <point x="87" y="317" type="curve" smooth="yes"/>
      <point x="58" y="310"/>
      <point x="50" y="300"/>
      <point x="50" y="282" type="curve" smooth="yes"/>
      <point x="50" y="264"/>
      <point x="59" y="254"/>
      <point x="86" y="248" type="curve" smooth="yes"/>
      <point x="127" y="239"/>
      <point x="160" y="217"/>
      <point x="160" y="159" type="curve" smooth="yes"/>
      <point x="160" y="97"/>
      <point x="146" y="51"/>
      <point x="146" y="-20" type="curve" smooth="yes"/>
      <point x="146" y="-116"/>
      <point x="248" y="-148"/>
    </contour>
  </outline>
</glyph>
<glyph name="bar" format="1">
  <advance width="270"/>
  <unicode hex="007C"/>
  <outline>
    <contour>
      <point x="170" y="-262" type="curve" smooth="yes"/>
      <point x="170" y="733" type="line" smooth="yes"/>
      <point x="170" y="743"/>
      <point x="162" y="749"/>
      <point x="154" y="749" type="curve" smooth="yes"/>
      <point x="147" y="749"/>
      <point x="100" y="740"/>
      <point x="100" y="715" type="curve" smooth="yes"/>
      <point x="100" y="-272" type="line" smooth="yes"/>
      <point x="100" y="-282"/>
      <point x="107" y="-289"/>
      <point x="114" y="-289" type="curve" smooth="yes"/>
      <point x="125" y="-289"/>
      <point x="170" y="-286"/>
    </contour>
  </outline>
</glyph>
<glyph name="asciitilde" format="1">
  <advance width="522"/>
  <unicode hex="007E"/>
  <outline>
    <contour>
      <point x="352" y="247" type="curve" smooth="yes"/>
      <point x="403" y="247"/>
      <point x="470" y="308"/>
      <point x="470" y="349" type="curve" smooth="yes"/>
      <point x="470" y="369"/>
      <point x="454" y="379"/>
      <point x="449" y="379" type="curve" smooth="yes"/>
      <point x="443" y="379"/>
      <point x="399" y="316"/>
      <point x="352" y="316" type="curve" smooth="yes"/>
      <point x="323" y="316"/>
      <point x="297" y="331"/>
      <point x="270" y="347" type="curve" smooth="yes"/>
      <point x="243" y="363"/>
      <point x="214" y="378"/>
      <point x="178" y="378" type="curve" smooth="yes"/>
      <point x="105" y="378"/>
      <point x="52" y="303"/>
      <point x="52" y="276" type="curve" smooth="yes"/>
      <point x="52" y="264"/>
      <point x="64" y="252"/>
      <point x="72" y="252" type="curve" smooth="yes"/>
      <point x="77" y="252"/>
      <point x="115" y="307"/>
      <point x="167" y="307" type="curve" smooth="yes"/>
      <point x="197" y="307"/>
      <point x="225" y="293"/>
      <point x="254" y="278" type="curve" smooth="yes"/>
      <point x="284" y="262"/>
      <point x="315" y="247"/>
    </contour>
  </outline>
</glyph>
